<?xml version="1.0" encoding="UTF-8" standalone="no"?>
<!DOCTYPE svg PUBLIC "-//W3C//DTD SVG 1.1//EN" "http://www.w3.org/Graphics/SVG/1.1/DTD/svg11.dtd">
<svg xmlns="http://www.w3.org/2000/svg" version="1.1" viewBox="0.00 0.00 953.00 818.00">
<g stroke-width="2.00" fill="none" stroke-linecap="butt">
<path stroke="#81c6de" vector-effect="non-scaling-stroke" d="
  M 608.37 818.00
  Q 643.55 816.56 676.01 809.09
  Q 793.43 782.05 867.86 687.35
  Q 884.35 666.37 898.85 639.71"
/>
<path stroke="#81e6f5" vector-effect="non-scaling-stroke" d="
  M 898.85 639.71
  Q 913.84 613.63 921.73 594.51
  Q 941.50 546.57 949.84 495.19
  Q 950.18 493.09 949.03 494.88
  Q 946.36 499.04 943.78 503.08
  Q 924.83 532.76 901.26 557.93
  C 867.57 593.89 827.00 620.57 780.50 634.68
  C 738.16 647.53 692.64 649.86 648.78 644.91
  C 605.00 639.96 561.33 629.09 519.49 615.08
  Q 483.49 603.02 448.19 588.59"
/>
<path stroke="#ffda80" vector-effect="non-scaling-stroke" d="
  M 448.19 588.59
  Q 454.58 585.84 460.66 582.91
  C 508.50 559.87 554.55 537.31 602.24 515.93
  Q 641.70 498.23 679.69 484.48
  Q 705.40 475.18 731.81 469.14
  C 751.18 464.72 771.02 462.57 790.14 464.87
  C 803.94 466.53 817.13 471.72 827.43 481.01
  Q 827.46 481.04 830.71 484.35
  Q 832.42 486.10 834.44 487.56"
/>
<path stroke="#81c6de" vector-effect="non-scaling-stroke" d="
  M 834.44 487.56
  Q 829.37 498.98 821.56 513.58
  C 810.66 533.96 797.22 552.52 780.70 568.13
  C 740.99 605.63 687.41 619.93 633.51 622.98
  Q 616.77 623.93 602.17 623.68
  Q 599.06 623.62 602.11 624.22
  Q 614.70 626.68 627.50 628.01
  Q 679.03 633.39 728.45 625.66
  C 747.37 622.71 767.11 617.80 784.28 611.66
  Q 881.54 576.88 929.83 484.44
  C 941.62 461.87 946.37 436.12 938.80 411.45
  C 934.96 398.89 926.74 385.29 914.64 380.06
  C 894.64 371.42 878.56 387.33 869.72 404.08
  Q 863.80 415.29 858.02 430.11
  Q 847.56 456.93 836.17 484.04"
/>
<path stroke="#ffda80" vector-effect="non-scaling-stroke" d="
  M 836.17 484.04
  Q 831.59 479.32 827.53 476.17
  Q 802.76 456.95 772.21 450.42
  C 743.43 444.26 713.60 445.28 684.71 449.76
  Q 657.17 454.03 627.38 462.50
  Q 594.93 471.72 562.25 484.10
  C 503.20 506.47 444.50 533.67 387.00 561.28
  Q 386.32 561.60 385.99 562.23"
/>
<path stroke="#81e6f5" vector-effect="non-scaling-stroke" d="
  M 385.99 562.23
  L 367.03 554.02"
/>
<path stroke="#f9b191" vector-effect="non-scaling-stroke" d="
  M 367.03 554.02
  Q 368.73 553.89 369.66 553.38
  Q 412.73 529.85 452.97 512.17
  Q 528.37 479.03 610.81 453.43"
/>
<path stroke="#fbba8b" vector-effect="non-scaling-stroke" d="
  M 610.81 453.43
  Q 655.32 440.03 700.23 427.89
  Q 723.85 421.51 747.60 415.94
  Q 749.23 415.56 749.74 413.98
  L 762.15 375.67
  Q 762.32 375.13 761.76 375.06
  Q 761.48 375.03 760.98 375.16
  Q 736.98 381.40 711.80 388.68
  Q 658.84 403.99 607.26 423.42"
/>
<path stroke="#f9b191" vector-effect="non-scaling-stroke" d="
  M 607.26 423.42
  Q 518.89 456.77 437.66 504.92
  Q 400.48 526.95 365.41 553.01"
/>
<path stroke="#81e6f5" vector-effect="non-scaling-stroke" d="
  M 365.41 553.01
  L 352.16 547.10"
/>
<path stroke="#f9b191" vector-effect="non-scaling-stroke" d="
  M 352.16 547.10
  Q 353.62 546.28 354.59 545.56
  Q 385.42 522.41 418.32 502.32
  Q 444.09 486.59 456.54 479.78
  Q 542.29 432.93 634.48 400.42"
/>
<path stroke="#fbba8b" vector-effect="non-scaling-stroke" d="
  M 634.48 400.42
  L 682.78 384.35"
/>
<path stroke="#fdc286" vector-effect="non-scaling-stroke" d="
  M 682.78 384.35
  Q 724.16 371.54 766.12 361.31
  A 2.40 2.40 0.0 0 0 767.82 359.79
  C 779.55 326.84 792.28 294.25 807.76 262.83"
/>
<path stroke="#ffcb80" vector-effect="non-scaling-stroke" d="
  M 807.76 262.83
  Q 827.20 223.84 851.33 187.57
  Q 855.89 180.71 856.63 177.04
  Q 858.55 167.61 848.25 166.14
  Q 842.45 165.32 835.74 166.67
  Q 827.36 168.36 817.45 171.92"
/>
<path stroke="#fdc286" vector-effect="non-scaling-stroke" d="
  M 817.45 171.92
  Q 806.62 175.50 795.98 179.38
  Q 743.01 198.70 691.64 221.94
  Q 688.31 223.45 685.00 224.86"
/>
<path stroke="#fbba8b" vector-effect="non-scaling-stroke" d="
  M 685.00 224.86
  L 635.22 249.25"
/>
<path stroke="#f9b191" vector-effect="non-scaling-stroke" d="
  M 635.22 249.25
  C 560.01 287.74 489.13 335.03 426.05 391.31
  Q 367.08 443.91 321.67 507.44
  Q 316.16 515.15 308.67 527.38"
/>
<path stroke="#81e6f5" vector-effect="non-scaling-stroke" d="
  M 308.67 527.38
  L 290.95 519.54"
/>
<path stroke="#f9b191" vector-effect="non-scaling-stroke" d="
  M 290.95 519.54
  Q 295.83 511.88 300.62 504.35
  Q 322.90 469.29 349.07 439.58
  Q 387.78 395.65 432.83 358.78
  Q 521.64 286.07 625.60 236.51
  Q 629.90 234.47 634.71 231.92
  A 0.63 0.63 0.0 0 0 634.80 230.87
  Q 626.06 224.17 618.10 217.74
  C 615.85 215.92 613.52 215.35 610.73 215.06
  Q 560.51 209.95 513.49 216.30
  C 492.71 219.10 472.48 224.11 452.79 231.72
  Q 445.77 234.44 440.65 237.97
  Q 429.58 245.59 417.98 256.58
  C 416.50 257.98 414.69 259.19 412.75 259.71
  Q 358.75 274.19 309.68 291.37
  Q 309.39 291.47 309.23 291.74
  A 0.34 0.33 -67.1 0 0 309.43 292.24
  C 320.28 294.80 331.92 297.79 341.80 301.48
  Q 350.91 304.89 360.01 313.17
  Q 360.95 314.03 362.02 314.73
  Q 362.45 315.02 362.93 314.80
  Q 372.96 310.14 383.83 307.48
  Q 385.22 307.13 384.27 308.20
  Q 356.47 339.17 331.92 373.83
  Q 331.27 374.73 330.16 374.91
  C 313.25 377.65 299.10 384.34 287.43 397.43
  Q 286.36 398.63 286.65 400.23
  Q 289.12 414.04 291.88 428.99
  Q 292.06 429.95 291.15 430.31
  Q 284.09 433.11 277.64 439.32
  C 276.60 440.32 275.24 441.75 275.53 443.29
  Q 277.46 453.29 279.55 464.08
  C 279.91 465.94 279.35 467.50 278.64 469.18
  Q 270.63 488.31 265.65 508.37"
/>
<path stroke="#81e6f5" vector-effect="non-scaling-stroke" d="
  M 265.65 508.37
  Q 230.38 492.55 193.02 479.43
  Q 192.61 479.28 192.58 478.95"
/>
<path stroke="#ffcb80" vector-effect="non-scaling-stroke" d="
  M 192.58 478.95
  Q 192.38 472.68 191.24 452.75
  Q 189.77 427.26 193.39 400.02
  Q 203.92 320.73 252.60 257.60
  Q 281.33 220.34 322.03 193.10"
/>
<path stroke="#ffd280" vector-effect="non-scaling-stroke" d="
  M 322.03 193.10
  Q 357.96 169.18 399.32 156.48"
/>
<path stroke="#ffda80" vector-effect="non-scaling-stroke" d="
  M 399.32 156.48
  Q 476.33 133.66 555.07 152.28
  A 0.62 0.62 0.0 0 0 555.84 151.70
  Q 556.20 143.66 560.66 136.69
  Q 562.81 133.33 567.91 129.38
  Q 572.17 126.08 576.18 123.11
  A 0.93 0.91 57.2 0 0 576.43 121.91
  C 573.74 117.20 570.93 113.47 575.92 108.47
  Q 581.66 102.72 586.84 99.90
  Q 595.77 95.03 606.12 90.99
  Q 606.52 90.84 606.27 90.49
  Q 606.00 90.13 605.58 90.00
  Q 593.22 86.30 577.89 80.86
  C 573.73 79.39 560.58 75.02 561.58 69.04
  Q 563.72 56.32 570.76 47.44
  Q 571.97 45.91 573.47 45.47
  Q 599.18 37.89 625.65 37.96
  Q 627.14 37.97 625.76 37.41
  Q 615.29 33.21 603.82 29.36
  Q 550.74 11.54 495.06 8.49
  C 478.83 7.60 460.94 7.74 445.75 8.53
  Q 418.80 9.94 389.30 15.67"
/>
<path stroke="#ffd280" vector-effect="non-scaling-stroke" d="
  M 389.30 15.67
  Q 351.58 23.16 315.87 37.38"
/>
<path stroke="#ffcb80" vector-effect="non-scaling-stroke" d="
  M 315.87 37.38
  C 260.71 59.13 210.78 93.05 169.88 135.34
  C 101.77 205.77 60.45 297.17 53.07 395.00
  Q 50.38 430.63 55.04 466.00
  Q 55.54 469.81 56.54 472.52"
/>
<path stroke="#81e6f5" vector-effect="non-scaling-stroke" d="
  M 56.54 472.52
  Q 34.96 486.23 24.22 510.00
  C 14.52 531.45 10.18 554.87 8.17 578.59
  Q 8.15 578.78 8.35 578.81
  L 8.36 578.81
  Q 8.56 578.84 8.60 578.64
  Q 12.26 560.11 19.77 543.00
  Q 26.19 528.39 34.82 518.55
  Q 55.80 494.64 89.72 495.26"
/>
<path stroke="#81b6d5" vector-effect="non-scaling-stroke" d="
  M 89.72 495.26
  Q 98.63 498.78 104.84 502.39
  Q 123.82 513.39 142.28 528.97
  Q 158.36 542.55 169.47 553.03
  Q 203.77 585.37 244.62 626.55"
/>
<path stroke="#ffcb80" vector-effect="non-scaling-stroke" d="
  M 244.62 626.55
  Q 244.52 627.21 243.09 627.39
  Q 242.08 627.52 241.46 627.77
  C 214.29 639.03 187.27 649.20 158.90 657.39
  Q 128.70 666.11 102.23 668.35
  Q 80.43 670.19 61.40 665.84
  Q 39.05 660.72 23.65 644.45
  Q 22.81 643.56 23.58 644.51
  C 45.40 671.71 76.29 686.45 110.84 690.22
  Q 142.70 693.70 178.91 687.96
  C 211.57 682.78 244.45 673.54 275.76 662.48
  Q 277.75 661.78 279.81 660.61"
/>
<path stroke="#81b6d5" vector-effect="non-scaling-stroke" d="
  M 279.81 660.61
  Q 316.31 695.94 355.63 727.84"
/>
<path stroke="#80bedb" vector-effect="non-scaling-stroke" d="
  M 355.63 727.84
  Q 389.63 755.57 423.07 775.42
  Q 439.35 785.08 461.28 793.80"
/>
<path stroke="#81c6de" vector-effect="non-scaling-stroke" d="
  M 461.28 793.80
  Q 507.37 811.64 556.75 816.47
  Q 563.27 817.11 578.74 818.00"
/>
<path stroke="#81c6de" vector-effect="non-scaling-stroke" d="
  M 599.82 131.29
  A 0.26 0.26 0.0 0 1 599.60 131.72
  Q 594.98 131.47 589.44 131.42
  C 584.36 131.38 580.17 134.61 576.00 137.27
  A 0.52 0.52 0.0 0 0 576.10 138.20
  L 614.24 152.23
  Q 614.83 152.45 614.55 153.01
  L 612.49 157.11
  Q 611.89 158.29 613.17 158.62
  C 616.54 159.51 624.04 156.51 627.38 155.13
  C 650.15 145.72 673.06 131.94 693.28 116.43
  A 0.54 0.54 0.0 0 1 694.11 116.64
  L 715.26 165.09
  A 0.63 0.63 0.0 0 0 716.22 165.33
  Q 721.37 161.37 721.65 155.38
  Q 723.09 123.75 724.06 92.09
  Q 724.09 90.87 724.98 90.08
  Q 750.33 67.44 783.67 35.44
  C 786.80 32.44 800.44 19.56 790.22 16.56
  C 784.05 14.75 776.41 14.87 770.25 17.78
  C 760.97 22.14 751.61 29.19 743.61 35.72
  Q 720.72 54.41 698.17 74.27
  A 1.83 1.82 29.3 0 1 696.61 74.70
  Q 652.52 66.31 603.99 59.01
  C 597.47 58.03 594.29 58.13 589.74 62.62
  Q 588.82 63.53 590.00 64.05
  L 667.87 98.81
  Q 669.36 99.47 668.13 100.55
  Q 653.30 113.54 638.95 127.21
  A 1.01 1.00 -55.3 0 1 637.86 127.41
  Q 621.19 120.29 603.55 113.92
  C 599.20 112.35 596.42 111.02 593.02 113.58
  Q 590.90 115.19 588.83 116.91
  A 0.67 0.67 0.0 0 0 588.74 117.86
  L 599.82 131.29"
/>
<path stroke="#ffcb80" vector-effect="non-scaling-stroke" d="
  M 748.55 171.81
  Q 769.22 163.71 789.42 156.37
  A 0.76 0.76 0.0 0 0 789.74 155.16
  Q 770.40 132.44 748.26 112.84
  A 0.47 0.47 0.0 0 0 747.48 113.18
  Q 746.68 133.22 745.76 153.48
  C 745.38 161.74 744.46 167.27 740.44 173.75
  Q 739.26 175.67 741.33 174.78
  Q 744.77 173.29 748.55 171.81"
/>
<path stroke="#ffd280" vector-effect="non-scaling-stroke" d="
  M 673.38 203.95
  Q 692.14 195.03 711.01 187.60
  Q 712.91 186.85 711.00 186.14
  C 706.11 184.34 699.44 180.72 697.29 175.72
  Q 691.39 161.93 685.80 148.39
  A 0.96 0.96 0.0 0 0 684.40 147.94
  Q 660.75 162.83 634.96 174.03
  Q 628.91 176.65 623.12 178.47
  A 0.54 0.54 0.0 0 0 623.03 179.47
  Q 646.59 191.92 666.07 206.16
  Q 666.96 206.81 668.00 206.37
  Q 670.70 205.23 673.38 203.95"
/>
<path stroke="#ffd280" vector-effect="non-scaling-stroke" d="
  M 807.37 322.92
  Q 803.55 332.58 799.92 342.19
  A 0.84 0.84 0.0 0 0 800.75 343.33
  C 826.15 342.15 852.36 347.68 873.50 362.20
  A 1.76 1.74 -42.2 0 0 875.34 362.28
  L 882.98 357.98
  Q 884.01 357.40 883.81 356.23
  Q 873.59 296.54 847.15 242.59
  A 0.73 0.73 0.0 0 0 845.86 242.55
  Q 823.75 281.49 807.37 322.92"
/>
<path stroke="#ffad01" vector-effect="non-scaling-stroke" d="
  M 399.32 156.48
  Q 399.32 155.93 399.74 155.63
  Q 400.22 155.30 399.74 154.98
  Q 399.52 154.82 399.25 154.92
  A 0.34 0.33 -29.6 0 1 398.91 154.83
  Q 398.79 154.70 398.78 154.52
  Q 398.76 154.05 398.30 153.93
  Q 394.17 152.88 394.89 148.82
  Q 394.97 148.34 394.69 147.95
  Q 394.17 147.23 394.45 146.40
  Q 394.62 145.91 395.13 145.98
  Q 395.66 146.04 396.14 146.24
  Q 396.66 146.46 396.56 145.90
  Q 396.41 145.03 395.74 144.88
  Q 395.19 144.76 394.88 144.30
  Q 394.38 143.55 394.93 142.92
  Q 395.27 142.54 395.34 142.04
  Q 395.74 139.27 396.14 136.50
  Q 396.19 136.16 395.89 135.94
  A 0.61 0.60 -61.5 0 1 395.69 135.24
  Q 396.54 133.04 395.85 130.55
  Q 395.75 130.19 395.90 129.86
  Q 396.39 128.80 396.61 127.71
  Q 396.68 127.38 396.52 127.09
  Q 395.38 125.09 397.26 123.73
  Q 398.44 122.87 397.85 121.62
  Q 397.79 121.48 397.84 121.35
  Q 398.23 120.28 397.72 119.24
  Q 397.52 118.84 397.18 119.13
  Q 396.64 119.60 396.33 118.95
  A 4.54 3.83 -52.6 0 1 396.18 115.82
  Q 396.43 115.01 396.14 114.24
  A 1.92 1.87 -50.3 0 1 396.06 113.23
  Q 396.54 110.72 396.05 108.04
  Q 395.92 107.31 396.03 106.61
  Q 396.16 105.72 395.98 104.85
  Q 395.75 103.73 395.78 102.61
  Q 395.88 99.25 395.27 96.27
  Q 395.15 95.67 395.41 95.11
  Q 396.04 93.78 395.74 92.36
  Q 395.41 90.80 395.51 89.11
  Q 395.63 86.98 395.99 84.93
  Q 396.08 84.38 395.82 83.89
  Q 395.59 83.46 395.84 83.04
  C 396.57 81.80 395.86 80.45 395.94 79.09
  Q 396.18 74.64 395.75 70.25
  Q 395.59 68.69 395.87 67.16
  Q 395.95 66.69 395.73 66.26
  Q 394.49 63.90 395.48 61.11
  Q 395.63 60.68 395.51 60.25
  C 395.10 58.78 395.21 57.43 394.89 55.97
  Q 394.70 55.09 395.25 54.35
  Q 395.44 54.09 395.45 53.78
  L 395.84 44.11
  Q 395.86 43.41 396.17 42.79
  C 396.70 41.69 396.10 40.51 396.12 39.36
  Q 396.15 37.50 396.21 35.56
  Q 396.28 33.73 396.86 32.18
  Q 397.68 30.00 397.40 27.41
  A 1.85 1.80 59.0 0 1 397.68 26.22
  Q 398.02 25.71 398.15 25.07
  Q 398.26 24.54 397.87 24.17
  Q 396.68 23.08 397.50 21.59
  Q 397.71 21.20 397.52 20.81
  Q 397.34 20.46 397.67 20.29
  Q 398.48 19.88 398.00 19.11
  Q 397.50 18.30 398.30 17.83
  Q 399.06 17.39 398.33 16.90
  Q 397.94 16.64 397.72 16.20
  Q 397.38 15.50 396.63 15.72
  Q 394.95 16.22 393.25 15.63
  Q 392.78 15.46 392.68 15.96
  Q 392.64 16.18 392.43 16.30
  Q 392.03 16.52 391.98 16.07
  Q 391.96 15.86 391.83 15.71
  A 0.49 0.47 -20.6 0 0 391.44 15.54
  L 389.30 15.67"
/>
<path stroke="#ff9e00" vector-effect="non-scaling-stroke" d="
  M 322.03 193.10
  L 321.35 192.29
  Q 320.99 191.85 320.46 192.05
  Q 319.69 192.34 318.89 192.31
  Q 318.42 192.30 318.23 192.73
  L 317.55 194.29
  A 0.88 0.88 0.0 0 1 315.98 194.38
  Q 315.43 193.43 315.96 192.36
  Q 316.21 191.86 315.99 191.35
  Q 315.72 190.74 316.01 190.15
  Q 316.22 189.71 316.06 189.25
  C 315.71 188.27 314.99 187.58 314.83 186.52
  Q 314.27 182.90 314.64 179.73
  Q 314.86 177.81 314.69 175.61
  Q 314.50 173.17 314.70 170.91
  Q 314.87 168.94 314.87 167.14
  Q 314.87 166.62 315.16 166.18
  Q 315.83 165.16 315.02 163.48
  Q 314.64 162.71 314.51 163.56
  Q 314.49 163.74 314.47 163.92
  Q 314.43 164.50 314.24 163.94
  Q 314.18 163.76 314.03 163.59
  Q 313.91 163.46 313.80 163.58
  Q 313.71 163.67 313.57 163.72
  Q 313.28 163.81 313.25 163.51
  Q 313.24 163.46 313.23 163.41
  Q 313.17 162.92 313.64 163.05
  Q 313.69 163.06 313.73 163.09
  Q 314.08 163.37 313.99 162.93
  Q 313.85 162.18 314.26 161.61
  Q 314.40 161.41 314.62 161.52
  Q 314.78 161.60 314.84 161.74
  Q 315.19 162.56 315.14 161.67
  Q 315.05 159.78 315.51 157.98
  Q 315.65 157.47 315.52 156.95
  Q 314.48 152.63 316.41 148.18
  A 1.31 1.30 54.8 0 0 316.52 147.53
  L 316.16 143.70
  Q 316.11 143.19 316.47 142.82
  Q 316.86 142.40 316.51 141.86
  A 0.93 0.91 37.6 0 1 316.40 141.10
  Q 316.69 140.16 316.37 139.25
  Q 316.19 138.75 316.19 138.22
  L 316.15 133.75
  Q 316.14 133.32 316.35 132.94
  Q 316.95 131.83 316.28 130.74
  Q 316.03 130.34 316.09 129.86
  C 316.28 128.41 315.88 127.05 316.08 125.65
  Q 316.38 123.56 315.93 121.39
  Q 315.70 120.24 315.93 119.14
  C 316.29 117.38 316.79 116.15 316.50 114.27
  Q 316.05 111.47 316.78 108.61
  A 0.09 0.08 -65.6 0 1 316.91 108.56
  Q 317.05 108.67 317.21 108.63
  Q 317.45 108.59 317.43 108.35
  Q 317.15 104.52 317.94 100.73
  Q 318.72 97.00 317.98 93.72
  A 1.10 1.09 0.5 0 1 319.31 92.42
  Q 320.00 92.58 320.71 92.58
  Q 321.69 92.58 320.73 92.35
  Q 319.80 92.12 319.65 91.24
  Q 319.57 90.72 319.13 90.43
  L 318.05 89.71
  Q 317.63 89.42 317.88 88.98
  Q 318.06 88.69 318.41 88.63
  Q 319.06 88.52 319.31 87.91
  Q 319.70 86.93 319.08 86.08
  Q 318.77 85.67 319.11 85.29
  Q 319.34 85.03 319.67 84.95
  Q 320.16 84.84 320.14 84.34
  Q 320.12 83.72 319.80 83.21
  Q 319.69 83.03 319.49 82.97
  Q 317.79 82.44 318.37 80.43
  A 0.61 0.61 0.0 0 1 318.77 80.02
  Q 319.10 79.91 319.12 80.17
  Q 319.13 80.29 319.14 80.17
  Q 319.14 79.99 319.14 79.82
  Q 319.14 79.48 318.87 79.29
  Q 318.30 78.89 317.88 79.40
  Q 317.33 80.04 317.42 79.20
  Q 317.80 75.30 316.74 71.21
  Q 316.60 70.68 316.75 70.16
  Q 317.04 69.14 316.59 68.24
  Q 316.45 67.96 316.52 67.66
  L 316.69 66.90
  Q 316.80 66.39 316.62 65.89
  L 315.75 63.59
  Q 315.56 63.09 315.74 62.59
  Q 316.20 61.28 315.45 60.17
  Q 315.19 59.77 315.13 59.30
  Q 314.99 58.01 315.05 56.66
  Q 315.12 55.25 314.93 53.87
  Q 314.35 49.73 314.80 45.63
  Q 314.83 45.37 315.06 45.21
  Q 315.17 45.13 315.24 45.02
  Q 315.39 44.77 315.41 44.48
  Q 315.53 42.85 316.51 41.60
  Q 316.82 41.20 316.86 40.70
  Q 316.99 38.92 315.87 37.38"
/>
<path stroke="#81b275" vector-effect="non-scaling-stroke" d="
  M 192.58 478.95
  Q 191.56 478.79 190.86 478.56
  Q 175.55 473.53 158.71 469.07
  C 140.80 464.32 123.29 461.42 104.56 461.13
  Q 84.70 460.82 66.73 467.62
  Q 64.46 468.49 56.54 472.52"
/>
<path stroke="#fd8e06" vector-effect="non-scaling-stroke" d="
  M 807.76 262.83
  L 807.17 262.32
  Q 806.82 262.02 806.79 261.56
  Q 806.75 261.00 807.35 260.90
  Q 807.62 260.85 807.62 260.58
  Q 807.64 259.56 808.14 258.31
  Q 808.38 257.69 807.81 258.04
  Q 807.55 258.20 807.29 258.11
  Q 806.71 257.93 806.97 257.38
  L 807.34 256.58
  Q 807.59 256.03 807.35 255.48
  Q 806.14 252.81 806.06 250.00
  Q 806.05 249.48 806.41 249.09
  Q 806.70 248.78 806.40 248.43
  Q 806.12 248.11 806.12 247.69
  C 806.14 246.17 805.73 244.85 805.93 243.34
  Q 806.32 240.47 805.24 237.67
  A 1.11 1.07 47.0 0 1 805.25 236.83
  Q 805.41 236.43 805.38 235.99
  Q 805.02 231.19 803.77 226.74
  Q 803.64 226.28 803.80 225.82
  C 803.94 225.41 804.08 224.94 804.06 224.49
  Q 803.92 220.99 804.71 217.61
  Q 805.19 215.58 805.35 213.44
  C 805.40 212.78 804.87 212.30 804.94 211.53
  Q 805.20 208.73 805.55 206.15
  Q 805.62 205.65 805.44 205.18
  Q 805.30 204.84 805.26 204.48
  Q 804.97 201.84 804.91 198.61
  Q 804.90 198.06 804.56 197.63
  Q 803.87 196.77 803.95 195.74
  Q 804.02 194.74 803.80 193.78
  Q 803.21 191.19 802.47 188.92
  Q 802.30 188.41 802.51 187.91
  Q 802.76 187.29 803.21 186.81
  Q 803.48 186.52 803.52 186.13
  L 804.08 180.59
  Q 804.15 179.96 804.78 179.93
  L 806.58 179.86
  Q 807.04 179.84 807.44 179.63
  Q 809.05 178.76 810.92 178.49
  Q 811.53 178.41 812.00 178.01
  Q 812.90 177.27 814.02 176.95
  Q 814.65 176.77 814.98 176.21
  Q 815.53 175.28 816.85 174.00
  Q 817.86 173.02 817.45 171.92"
/>
<path stroke="#f97d12" vector-effect="non-scaling-stroke" d="
  M 682.78 384.35
  Q 683.45 383.61 682.48 383.01
  Q 682.01 382.71 681.44 382.90
  Q 680.99 383.05 680.75 382.64
  Q 680.23 381.73 679.35 380.99
  Q 678.80 380.51 678.73 379.81
  Q 678.65 378.93 679.27 378.31
  Q 679.56 378.02 679.22 377.80
  Q 678.59 377.37 678.93 376.65
  A 1.02 1.01 -36.6 0 0 679.01 376.13
  L 678.69 373.70
  Q 678.63 373.23 678.85 372.81
  Q 679.09 372.35 678.70 371.99
  Q 678.34 371.65 678.17 371.17
  Q 677.49 369.22 678.01 367.47
  Q 678.16 366.95 677.91 366.49
  Q 677.03 364.86 677.78 363.51
  Q 678.08 362.96 677.76 362.41
  Q 676.91 361.00 677.03 359.39
  Q 677.47 353.67 677.41 348.22
  C 677.39 346.51 677.93 345.33 676.85 343.70
  Q 676.56 343.25 676.91 342.84
  C 677.24 342.47 677.36 341.92 677.39 341.45
  Q 677.62 337.80 677.93 333.86
  Q 677.97 333.36 677.71 332.93
  Q 677.46 332.52 677.80 332.17
  Q 678.16 331.81 678.09 331.30
  Q 677.70 328.38 678.38 325.24
  Q 678.79 323.34 678.87 321.15
  Q 678.95 319.03 679.09 316.90
  Q 679.63 308.70 679.46 297.37
  C 679.44 296.23 679.78 295.11 679.74 294.00
  Q 679.69 292.72 679.75 291.48
  Q 679.90 287.95 680.44 284.67
  Q 680.63 283.52 679.79 282.83
  Q 679.57 282.66 679.72 282.42
  Q 680.78 280.82 680.24 278.92
  Q 680.11 278.43 680.45 278.07
  Q 680.74 277.77 680.55 277.39
  Q 680.35 277.02 680.34 276.59
  Q 680.12 270.08 680.32 263.24
  Q 680.43 259.83 680.34 256.28
  Q 680.24 252.62 680.08 249.43
  Q 679.97 247.11 680.40 244.64
  Q 680.87 241.99 680.64 239.88
  Q 680.53 238.90 680.54 237.93
  Q 680.55 236.99 681.09 236.21
  Q 682.15 234.67 681.88 232.93
  A 1.32 1.31 77.5 0 0 680.20 231.86
  Q 678.50 232.36 676.90 232.19
  A 0.30 0.29 -47.4 0 1 676.88 231.61
  Q 678.93 231.20 677.95 230.31
  A 0.48 0.48 0.0 0 0 677.25 230.37
  Q 676.88 230.84 676.33 230.89
  Q 675.92 230.93 676.27 230.71
  Q 678.95 229.04 681.91 228.00
  Q 682.39 227.83 682.58 227.36
  Q 682.74 226.98 683.04 226.69
  Q 683.24 226.49 684.09 226.01
  Q 684.77 225.63 685.00 224.86"
/>
<path stroke="#fdc286" vector-effect="non-scaling-stroke" d="
  M 792.20 195.74
  C 778.02 201.32 763.33 207.95 749.02 213.95
  A 4.42 4.42 0.0 0 0 747.14 215.44
  L 740.45 224.67
  Q 739.68 225.74 740.92 225.30
  Q 746.32 223.37 750.96 221.39
  Q 764.69 215.49 779.51 209.21
  C 782.69 207.87 786.19 206.73 788.35 203.93
  Q 790.96 200.53 793.22 196.97
  Q 794.59 194.80 792.20 195.74"
/>
<path stroke="#7b9887" vector-effect="non-scaling-stroke" d="
  M 290.95 519.54
  Q 287.89 518.70 286.74 517.60"
/>
<path stroke="#f9b191" vector-effect="non-scaling-stroke" d="
  M 286.74 517.60
  Q 289.92 511.21 293.07 504.77
  Q 308.38 473.38 327.19 446.39
  Q 342.48 424.46 361.85 403.63
  C 366.87 398.23 369.25 389.76 370.56 382.62
  Q 372.26 373.38 373.39 364.84
  Q 373.55 363.66 372.63 364.41
  Q 369.81 366.69 367.16 369.03
  Q 343.83 389.70 323.91 416.12
  Q 291.94 458.51 270.70 508.51
  Q 270.60 508.74 269.67 509.92"
/>
<path stroke="#7b9887" vector-effect="non-scaling-stroke" d="
  M 269.67 509.92
  Q 268.23 509.91 265.65 508.37"
/>
<path stroke="#f56c1d" vector-effect="non-scaling-stroke" d="
  M 634.48 400.42
  Q 633.95 400.43 633.74 400.20
  Q 633.32 399.75 633.84 399.43
  Q 634.29 399.16 634.08 398.70
  Q 633.96 398.46 633.95 398.20
  Q 633.80 394.92 632.99 391.73
  Q 632.86 391.22 633.00 390.72
  Q 634.00 387.28 633.45 383.69
  Q 633.34 382.96 633.49 382.24
  Q 634.08 379.50 633.29 376.68
  A 1.89 1.86 49.6 0 1 633.38 375.42
  Q 633.71 374.68 633.40 373.99
  Q 633.08 373.25 633.16 372.46
  Q 633.46 369.18 633.16 366.52
  Q 632.99 365.03 633.64 363.73
  Q 633.87 363.27 633.81 362.77
  Q 632.44 349.92 633.13 337.15
  Q 633.18 336.29 633.17 335.43
  Q 633.17 334.01 633.35 332.50
  Q 633.91 327.67 633.32 322.13
  Q 633.15 320.53 633.34 318.69
  A 1.40 1.36 -61.1 0 0 633.08 317.74
  Q 632.44 316.86 632.61 315.77
  Q 633.43 310.40 632.52 305.35
  Q 632.27 303.95 632.55 302.56
  Q 632.86 301.05 632.68 299.55
  Q 632.45 297.66 632.59 295.24
  Q 632.72 293.03 632.78 290.86
  Q 632.86 287.48 633.64 284.41
  Q 633.76 283.95 633.34 283.71
  Q 633.14 283.60 633.21 283.38
  Q 633.50 282.37 634.28 281.70
  Q 634.70 281.34 634.41 280.87
  L 633.63 279.62
  Q 633.37 279.21 633.47 278.74
  Q 634.87 271.71 633.56 264.45
  Q 633.17 262.31 633.40 260.42
  Q 633.73 257.68 632.56 255.08
  Q 632.38 254.66 632.67 254.32
  Q 632.84 254.13 633.06 254.01
  Q 633.50 253.79 633.56 253.30
  Q 633.68 252.22 634.66 251.77
  Q 635.09 251.57 635.11 251.10
  L 635.22 249.25"
/>
<path stroke="#7b9887" vector-effect="non-scaling-stroke" d="
  M 352.16 547.10
  L 308.67 527.38"
/>
<path stroke="#81e6f5" vector-effect="non-scaling-stroke" d="
  M 286.74 517.60
  L 269.67 509.92"
/>
<path stroke="#f56c1d" vector-effect="non-scaling-stroke" d="
  M 610.81 453.43
  Q 610.85 452.30 611.20 451.43
  Q 611.24 451.33 611.17 451.26
  Q 611.02 451.09 610.94 451.19
  Q 610.53 451.71 610.43 451.06
  Q 610.09 448.99 609.85 446.96
  C 609.70 445.72 610.42 444.77 610.90 443.70
  Q 611.11 443.25 610.86 442.83
  Q 610.28 441.84 610.37 440.75
  Q 610.40 440.42 610.10 440.27
  Q 609.98 440.20 609.88 440.09
  Q 609.63 439.83 609.57 439.48
  Q 608.76 435.19 609.71 431.06
  A 2.11 2.08 41.5 0 0 609.63 429.86
  Q 609.02 428.27 609.79 426.81
  Q 610.05 426.34 609.78 425.88
  Q 609.21 424.86 608.05 424.61
  Q 607.68 424.53 607.55 424.18
  L 607.26 423.42"
/>
<path stroke="#81a15f" vector-effect="non-scaling-stroke" d="
  M 834.44 487.56
  L 836.17 484.04"
/>
<path stroke="#7b9887" vector-effect="non-scaling-stroke" d="
  M 367.03 554.02
  Q 366.84 553.71 365.41 553.01"
/>
<path stroke="#81c176" vector-effect="non-scaling-stroke" d="
  M 448.19 588.59
  L 385.99 562.23"
/>
<path stroke="#03add4" vector-effect="non-scaling-stroke" d="
  M 898.85 639.71
  Q 893.90 645.24 889.68 651.24
  Q 882.76 661.06 881.06 663.15
  C 859.12 690.13 831.71 712.04 800.43 727.24
  C 766.56 743.70 728.13 753.05 690.11 756.53
  Q 673.82 758.02 652.50 758.61
  Q 630.76 759.21 611.57 756.05
  C 584.34 751.56 557.67 742.81 532.50 731.94
  Q 507.60 721.19 483.53 708.48"
/>
<path stroke="#02a5d0" vector-effect="non-scaling-stroke" d="
  M 483.53 708.48
  Q 464.16 698.37 445.29 687.12
  C 436.24 681.73 426.77 676.39 418.14 670.99
  Q 399.57 659.40 381.04 647.69"
/>
<path stroke="#039dca" vector-effect="non-scaling-stroke" d="
  M 381.04 647.69
  Q 332.80 616.23 284.54 584.73
  Q 252.99 564.15 226.51 548.46
  C 204.46 535.39 181.78 523.20 158.64 513.10
  C 142.67 506.13 126.51 500.64 109.50 497.45
  Q 99.34 495.55 89.72 495.26"
/>
<path stroke="#0275b0" vector-effect="non-scaling-stroke" d="
  M 381.04 647.69
  Q 380.94 649.37 380.29 649.64
  Q 379.81 649.84 380.00 650.32
  Q 380.18 650.76 380.30 651.27
  Q 380.43 651.85 379.86 651.69
  Q 379.50 651.59 379.35 651.93
  Q 377.34 656.72 375.61 662.75
  C 375.40 663.47 374.88 663.97 374.69 664.66
  Q 373.43 669.39 371.22 674.32
  C 370.72 675.44 370.87 676.73 370.33 677.80
  Q 368.81 680.88 367.66 684.50
  A 18.32 13.52 65.0 0 0 366.97 687.90
  Q 366.81 689.59 365.93 691.08
  Q 365.68 691.50 365.63 691.99
  Q 365.53 693.00 364.92 693.93
  Q 363.96 695.38 364.05 697.04
  Q 364.07 697.55 363.63 697.81
  Q 363.06 698.15 363.28 698.76
  Q 363.43 699.15 363.25 699.54
  Q 362.68 700.78 362.60 702.07
  Q 362.58 702.41 362.30 702.59
  L 361.89 702.87
  Q 361.36 703.22 361.41 703.85
  C 361.48 704.81 361.04 705.41 361.18 706.40
  Q 361.49 708.47 360.81 710.64
  Q 360.66 711.13 360.16 711.23
  Q 359.82 711.30 359.67 711.64
  Q 359.58 711.85 359.77 711.97
  Q 359.91 712.05 360.04 712.11
  Q 360.54 712.34 360.28 712.82
  C 359.74 713.84 360.16 715.01 359.67 715.82
  Q 359.41 716.23 358.96 716.38
  Q 358.67 716.49 358.70 716.80
  Q 358.72 716.99 358.87 717.11
  Q 359.24 717.44 358.94 717.83
  Q 358.58 718.29 358.83 718.79
  Q 359.06 719.24 359.07 719.75
  Q 359.08 721.19 358.82 722.63
  Q 358.72 723.13 358.24 723.17
  Q 357.81 723.20 358.10 723.53
  Q 358.22 723.67 358.40 723.62
  Q 358.81 723.52 358.49 723.80
  Q 358.38 723.90 358.24 723.90
  Q 358.02 723.90 357.84 723.82
  Q 357.72 723.76 357.60 723.70
  Q 357.25 723.52 356.92 723.72
  Q 356.56 723.95 356.47 724.38
  Q 356.39 724.77 356.72 724.98
  Q 357.35 725.40 357.13 726.13
  A 0.63 0.62 26.1 0 0 357.37 726.81
  Q 357.49 726.89 357.62 726.86
  Q 357.97 726.77 357.94 727.12
  Q 357.92 727.32 357.80 727.49
  Q 357.68 727.66 357.48 727.58
  Q 356.76 727.29 355.63 727.84"
/>
<path stroke="#818255" vector-effect="non-scaling-stroke" d="
  M 279.81 660.61
  L 244.62 626.55"
/>
<path stroke="#0285ba" vector-effect="non-scaling-stroke" d="
  M 461.28 793.80
  Q 461.31 793.22 461.53 792.82
  Q 461.74 792.44 462.15 792.58
  Q 462.28 792.63 462.41 792.69
  Q 463.18 793.09 463.31 792.23
  Q 463.53 790.83 462.57 789.61
  A 0.53 0.53 0.0 0 1 462.62 788.90
  Q 463.03 788.52 462.75 788.08
  Q 462.50 787.69 462.67 787.26
  Q 463.57 785.01 463.29 782.53
  Q 463.27 782.28 463.46 782.13
  Q 463.57 782.04 463.71 782.01
  A 0.53 0.53 0.0 0 0 463.81 781.02
  Q 463.22 780.73 463.65 780.20
  Q 463.98 779.79 463.96 779.27
  Q 463.84 776.74 464.80 774.90
  Q 465.75 773.06 465.77 770.85
  Q 465.77 770.36 466.06 769.97
  Q 466.89 768.86 467.49 767.44
  Q 467.79 766.74 467.55 766.04
  Q 467.45 765.76 467.62 765.51
  Q 469.19 763.20 468.84 760.27
  Q 468.77 759.69 469.11 759.22
  Q 469.56 758.59 469.40 757.81
  Q 469.30 757.28 469.51 756.79
  L 470.75 753.78
  Q 470.99 753.20 470.91 752.58
  Q 470.52 749.79 472.46 747.70
  A 0.08 0.08 0.0 0 0 472.41 747.56
  Q 472.23 747.53 472.22 747.35
  Q 472.20 746.98 472.47 746.68
  Q 474.28 744.65 474.96 741.79
  Q 475.11 741.17 475.73 741.00
  Q 476.61 740.77 476.45 739.82
  A 1.90 1.89 52.6 0 1 476.60 738.67
  Q 478.09 735.52 479.13 732.34
  Q 479.29 731.87 479.25 731.38
  Q 479.21 730.87 479.35 730.37
  L 481.06 724.08
  Q 481.16 723.73 481.37 723.44
  L 481.69 723.00
  A 0.76 0.75 54.5 0 0 481.80 722.32
  Q 480.75 718.91 483.87 717.40
  A 0.05 0.04 58.3 0 0 483.88 717.33
  L 483.62 717.04
  Q 483.28 716.65 483.62 716.27
  L 484.68 715.07
  A 0.93 0.93 0.0 0 0 484.89 714.24
  Q 484.71 713.40 485.38 712.92
  Q 485.76 712.65 485.44 712.32
  Q 485.17 712.04 485.01 711.68
  A 0.43 0.41 -43.6 0 1 485.03 711.28
  Q 485.11 711.15 485.25 711.10
  Q 485.71 710.95 485.71 710.47
  Q 485.71 710.12 485.44 709.94
  Q 485.28 709.84 484.91 709.85
  Q 483.21 709.90 483.53 708.48"
/>
</g>
<path fill="#ffffff" d="
  M 0.00 0.00
  L 953.00 0.00
  L 953.00 818.00
  L 608.37 818.00
  Q 643.55 816.56 676.01 809.09
  Q 793.43 782.05 867.86 687.35
  Q 884.35 666.37 898.85 639.71
  Q 913.84 613.63 921.73 594.51
  Q 941.50 546.57 949.84 495.19
  Q 950.18 493.09 949.03 494.88
  Q 946.36 499.04 943.78 503.08
  Q 924.83 532.76 901.26 557.93
  C 867.57 593.89 827.00 620.57 780.50 634.68
  C 738.16 647.53 692.64 649.86 648.78 644.91
  C 605.00 639.96 561.33 629.09 519.49 615.08
  Q 483.49 603.02 448.19 588.59
  Q 454.58 585.84 460.66 582.91
  C 508.50 559.87 554.55 537.31 602.24 515.93
  Q 641.70 498.23 679.69 484.48
  Q 705.40 475.18 731.81 469.14
  C 751.18 464.72 771.02 462.57 790.14 464.87
  C 803.94 466.53 817.13 471.72 827.43 481.01
  Q 827.46 481.04 830.71 484.35
  Q 832.42 486.10 834.44 487.56
  Q 829.37 498.98 821.56 513.58
  C 810.66 533.96 797.22 552.52 780.70 568.13
  C 740.99 605.63 687.41 619.93 633.51 622.98
  Q 616.77 623.93 602.17 623.68
  Q 599.06 623.62 602.11 624.22
  Q 614.70 626.68 627.50 628.01
  Q 679.03 633.39 728.45 625.66
  C 747.37 622.71 767.11 617.80 784.28 611.66
  Q 881.54 576.88 929.83 484.44
  C 941.62 461.87 946.37 436.12 938.80 411.45
  C 934.96 398.89 926.74 385.29 914.64 380.06
  C 894.64 371.42 878.56 387.33 869.72 404.08
  Q 863.80 415.29 858.02 430.11
  Q 847.56 456.93 836.17 484.04
  Q 831.59 479.32 827.53 476.17
  Q 802.76 456.95 772.21 450.42
  C 743.43 444.26 713.60 445.28 684.71 449.76
  Q 657.17 454.03 627.38 462.50
  Q 594.93 471.72 562.25 484.10
  C 503.20 506.47 444.50 533.67 387.00 561.28
  Q 386.32 561.60 385.99 562.23
  L 367.03 554.02
  Q 368.73 553.89 369.66 553.38
  Q 412.73 529.85 452.97 512.17
  Q 528.37 479.03 610.81 453.43
  Q 655.32 440.03 700.23 427.89
  Q 723.85 421.51 747.60 415.94
  Q 749.23 415.56 749.74 413.98
  L 762.15 375.67
  Q 762.32 375.13 761.76 375.06
  Q 761.48 375.03 760.98 375.16
  Q 736.98 381.40 711.80 388.68
  Q 658.84 403.99 607.26 423.42
  Q 518.89 456.77 437.66 504.92
  Q 400.48 526.95 365.41 553.01
  L 352.16 547.10
  Q 353.62 546.28 354.59 545.56
  Q 385.42 522.41 418.32 502.32
  Q 444.09 486.59 456.54 479.78
  Q 542.29 432.93 634.48 400.42
  L 682.78 384.35
  Q 724.16 371.54 766.12 361.31
  A 2.40 2.40 0.0 0 0 767.82 359.79
  C 779.55 326.84 792.28 294.25 807.76 262.83
  Q 827.20 223.84 851.33 187.57
  Q 855.89 180.71 856.63 177.04
  Q 858.55 167.61 848.25 166.14
  Q 842.45 165.32 835.74 166.67
  Q 827.36 168.36 817.45 171.92
  Q 806.62 175.50 795.98 179.38
  Q 743.01 198.70 691.64 221.94
  Q 688.31 223.45 685.00 224.86
  L 635.22 249.25
  C 560.01 287.74 489.13 335.03 426.05 391.31
  Q 367.08 443.91 321.67 507.44
  Q 316.16 515.15 308.67 527.38
  L 290.95 519.54
  Q 295.83 511.88 300.62 504.35
  Q 322.90 469.29 349.07 439.58
  Q 387.78 395.65 432.83 358.78
  Q 521.64 286.07 625.60 236.51
  Q 629.90 234.47 634.71 231.92
  A 0.63 0.63 0.0 0 0 634.80 230.87
  Q 626.06 224.17 618.10 217.74
  C 615.85 215.92 613.52 215.35 610.73 215.06
  Q 560.51 209.95 513.49 216.30
  C 492.71 219.10 472.48 224.11 452.79 231.72
  Q 445.77 234.44 440.65 237.97
  Q 429.58 245.59 417.98 256.58
  C 416.50 257.98 414.69 259.19 412.75 259.71
  Q 358.75 274.19 309.68 291.37
  Q 309.39 291.47 309.23 291.74
  A 0.34 0.33 -67.1 0 0 309.43 292.24
  C 320.28 294.80 331.92 297.79 341.80 301.48
  Q 350.91 304.89 360.01 313.17
  Q 360.95 314.03 362.02 314.73
  Q 362.45 315.02 362.93 314.80
  Q 372.96 310.14 383.83 307.48
  Q 385.22 307.13 384.27 308.20
  Q 356.47 339.17 331.92 373.83
  Q 331.27 374.73 330.16 374.91
  C 313.25 377.65 299.10 384.34 287.43 397.43
  Q 286.36 398.63 286.65 400.23
  Q 289.12 414.04 291.88 428.99
  Q 292.06 429.95 291.15 430.31
  Q 284.09 433.11 277.64 439.32
  C 276.60 440.32 275.24 441.75 275.53 443.29
  Q 277.46 453.29 279.55 464.08
  C 279.91 465.94 279.35 467.50 278.64 469.18
  Q 270.63 488.31 265.65 508.37
  Q 230.38 492.55 193.02 479.43
  Q 192.61 479.28 192.58 478.95
  Q 192.38 472.68 191.24 452.75
  Q 189.77 427.26 193.39 400.02
  Q 203.92 320.73 252.60 257.60
  Q 281.33 220.34 322.03 193.10
  Q 357.96 169.18 399.32 156.48
  Q 476.33 133.66 555.07 152.28
  A 0.62 0.62 0.0 0 0 555.84 151.70
  Q 556.20 143.66 560.66 136.69
  Q 562.81 133.33 567.91 129.38
  Q 572.17 126.08 576.18 123.11
  A 0.93 0.91 57.2 0 0 576.43 121.91
  C 573.74 117.20 570.93 113.47 575.92 108.47
  Q 581.66 102.72 586.84 99.90
  Q 595.77 95.03 606.12 90.99
  Q 606.52 90.84 606.27 90.49
  Q 606.00 90.13 605.58 90.00
  Q 593.22 86.30 577.89 80.86
  C 573.73 79.39 560.58 75.02 561.58 69.04
  Q 563.72 56.32 570.76 47.44
  Q 571.97 45.91 573.47 45.47
  Q 599.18 37.89 625.65 37.96
  Q 627.14 37.97 625.76 37.41
  Q 615.29 33.21 603.82 29.36
  Q 550.74 11.54 495.06 8.49
  C 478.83 7.60 460.94 7.74 445.75 8.53
  Q 418.80 9.94 389.30 15.67
  Q 351.58 23.16 315.87 37.38
  C 260.71 59.13 210.78 93.05 169.88 135.34
  C 101.77 205.77 60.45 297.17 53.07 395.00
  Q 50.38 430.63 55.04 466.00
  Q 55.54 469.81 56.54 472.52
  Q 34.96 486.23 24.22 510.00
  C 14.52 531.45 10.18 554.87 8.17 578.59
  Q 8.15 578.78 8.35 578.81
  L 8.36 578.81
  Q 8.56 578.84 8.60 578.64
  Q 12.26 560.11 19.77 543.00
  Q 26.19 528.39 34.82 518.55
  Q 55.80 494.64 89.72 495.26
  Q 98.63 498.78 104.84 502.39
  Q 123.82 513.39 142.28 528.97
  Q 158.36 542.55 169.47 553.03
  Q 203.77 585.37 244.62 626.55
  Q 244.52 627.21 243.09 627.39
  Q 242.08 627.52 241.46 627.77
  C 214.29 639.03 187.27 649.20 158.90 657.39
  Q 128.70 666.11 102.23 668.35
  Q 80.43 670.19 61.40 665.84
  Q 39.05 660.72 23.65 644.45
  Q 22.81 643.56 23.58 644.51
  C 45.40 671.71 76.29 686.45 110.84 690.22
  Q 142.70 693.70 178.91 687.96
  C 211.57 682.78 244.45 673.54 275.76 662.48
  Q 277.75 661.78 279.81 660.61
  Q 316.31 695.94 355.63 727.84
  Q 389.63 755.57 423.07 775.42
  Q 439.35 785.08 461.28 793.80
  Q 507.37 811.64 556.75 816.47
  Q 563.27 817.11 578.74 818.00
  L 0.00 818.00
  L 0.00 0.00
  Z
  M 599.82 131.29
  A 0.26 0.26 0.0 0 1 599.60 131.72
  Q 594.98 131.47 589.44 131.42
  C 584.36 131.38 580.17 134.61 576.00 137.27
  A 0.52 0.52 0.0 0 0 576.10 138.20
  L 614.24 152.23
  Q 614.83 152.45 614.55 153.01
  L 612.49 157.11
  Q 611.89 158.29 613.17 158.62
  C 616.54 159.51 624.04 156.51 627.38 155.13
  C 650.15 145.72 673.06 131.94 693.28 116.43
  A 0.54 0.54 0.0 0 1 694.11 116.64
  L 715.26 165.09
  A 0.63 0.63 0.0 0 0 716.22 165.33
  Q 721.37 161.37 721.65 155.38
  Q 723.09 123.75 724.06 92.09
  Q 724.09 90.87 724.98 90.08
  Q 750.33 67.44 783.67 35.44
  C 786.80 32.44 800.44 19.56 790.22 16.56
  C 784.05 14.75 776.41 14.87 770.25 17.78
  C 760.97 22.14 751.61 29.19 743.61 35.72
  Q 720.72 54.41 698.17 74.27
  A 1.83 1.82 29.3 0 1 696.61 74.70
  Q 652.52 66.31 603.99 59.01
  C 597.47 58.03 594.29 58.13 589.74 62.62
  Q 588.82 63.53 590.00 64.05
  L 667.87 98.81
  Q 669.36 99.47 668.13 100.55
  Q 653.30 113.54 638.95 127.21
  A 1.01 1.00 -55.3 0 1 637.86 127.41
  Q 621.19 120.29 603.55 113.92
  C 599.20 112.35 596.42 111.02 593.02 113.58
  Q 590.90 115.19 588.83 116.91
  A 0.67 0.67 0.0 0 0 588.74 117.86
  L 599.82 131.29
  Z
  M 748.55 171.81
  Q 769.22 163.71 789.42 156.37
  A 0.76 0.76 0.0 0 0 789.74 155.16
  Q 770.40 132.44 748.26 112.84
  A 0.47 0.47 0.0 0 0 747.48 113.18
  Q 746.68 133.22 745.76 153.48
  C 745.38 161.74 744.46 167.27 740.44 173.75
  Q 739.26 175.67 741.33 174.78
  Q 744.77 173.29 748.55 171.81
  Z
  M 673.38 203.95
  Q 692.14 195.03 711.01 187.60
  Q 712.91 186.85 711.00 186.14
  C 706.11 184.34 699.44 180.72 697.29 175.72
  Q 691.39 161.93 685.80 148.39
  A 0.96 0.96 0.0 0 0 684.40 147.94
  Q 660.75 162.83 634.96 174.03
  Q 628.91 176.65 623.12 178.47
  A 0.54 0.54 0.0 0 0 623.03 179.47
  Q 646.59 191.92 666.07 206.16
  Q 666.96 206.81 668.00 206.37
  Q 670.70 205.23 673.38 203.95
  Z
  M 807.37 322.92
  Q 803.55 332.58 799.92 342.19
  A 0.84 0.84 0.0 0 0 800.75 343.33
  C 826.15 342.15 852.36 347.68 873.50 362.20
  A 1.76 1.74 -42.2 0 0 875.34 362.28
  L 882.98 357.98
  Q 884.01 357.40 883.81 356.23
  Q 873.59 296.54 847.15 242.59
  A 0.73 0.73 0.0 0 0 845.86 242.55
  Q 823.75 281.49 807.37 322.92
  Z"
/>
<path fill="#ffb501" d="
  M 399.32 156.48
  Q 399.32 155.93 399.74 155.63
  Q 400.22 155.30 399.74 154.98
  Q 399.52 154.82 399.25 154.92
  A 0.34 0.33 -29.6 0 1 398.91 154.83
  Q 398.79 154.70 398.78 154.52
  Q 398.76 154.05 398.30 153.93
  Q 394.17 152.88 394.89 148.82
  Q 394.97 148.34 394.69 147.95
  Q 394.17 147.23 394.45 146.40
  Q 394.62 145.91 395.13 145.98
  Q 395.66 146.04 396.14 146.24
  Q 396.66 146.46 396.56 145.90
  Q 396.41 145.03 395.74 144.88
  Q 395.19 144.76 394.88 144.30
  Q 394.38 143.55 394.93 142.92
  Q 395.27 142.54 395.34 142.04
  Q 395.74 139.27 396.14 136.50
  Q 396.19 136.16 395.89 135.94
  A 0.61 0.60 -61.5 0 1 395.69 135.24
  Q 396.54 133.04 395.85 130.55
  Q 395.75 130.19 395.90 129.86
  Q 396.39 128.80 396.61 127.71
  Q 396.68 127.38 396.52 127.09
  Q 395.38 125.09 397.26 123.73
  Q 398.44 122.87 397.85 121.62
  Q 397.79 121.48 397.84 121.35
  Q 398.23 120.28 397.72 119.24
  Q 397.52 118.84 397.18 119.13
  Q 396.64 119.60 396.33 118.95
  A 4.54 3.83 -52.6 0 1 396.18 115.82
  Q 396.43 115.01 396.14 114.24
  A 1.92 1.87 -50.3 0 1 396.06 113.23
  Q 396.54 110.72 396.05 108.04
  Q 395.92 107.31 396.03 106.61
  Q 396.16 105.72 395.98 104.85
  Q 395.75 103.73 395.78 102.61
  Q 395.88 99.25 395.27 96.27
  Q 395.15 95.67 395.41 95.11
  Q 396.04 93.78 395.74 92.36
  Q 395.41 90.80 395.51 89.11
  Q 395.63 86.98 395.99 84.93
  Q 396.08 84.38 395.82 83.89
  Q 395.59 83.46 395.84 83.04
  C 396.57 81.80 395.86 80.45 395.94 79.09
  Q 396.18 74.64 395.75 70.25
  Q 395.59 68.69 395.87 67.16
  Q 395.95 66.69 395.73 66.26
  Q 394.49 63.90 395.48 61.11
  Q 395.63 60.68 395.51 60.25
  C 395.10 58.78 395.21 57.43 394.89 55.97
  Q 394.70 55.09 395.25 54.35
  Q 395.44 54.09 395.45 53.78
  L 395.84 44.11
  Q 395.86 43.41 396.17 42.79
  C 396.70 41.69 396.10 40.51 396.12 39.36
  Q 396.15 37.50 396.21 35.56
  Q 396.28 33.73 396.86 32.18
  Q 397.68 30.00 397.40 27.41
  A 1.85 1.80 59.0 0 1 397.68 26.22
  Q 398.02 25.71 398.15 25.07
  Q 398.26 24.54 397.87 24.17
  Q 396.68 23.08 397.50 21.59
  Q 397.71 21.20 397.52 20.81
  Q 397.34 20.46 397.67 20.29
  Q 398.48 19.88 398.00 19.11
  Q 397.50 18.30 398.30 17.83
  Q 399.06 17.39 398.33 16.90
  Q 397.94 16.64 397.72 16.20
  Q 397.38 15.50 396.63 15.72
  Q 394.95 16.22 393.25 15.63
  Q 392.78 15.46 392.68 15.96
  Q 392.64 16.18 392.43 16.30
  Q 392.03 16.52 391.98 16.07
  Q 391.96 15.86 391.83 15.71
  A 0.49 0.47 -20.6 0 0 391.44 15.54
  L 389.30 15.67
  Q 418.80 9.94 445.75 8.53
  C 460.94 7.74 478.83 7.60 495.06 8.49
  Q 550.74 11.54 603.82 29.36
  Q 615.29 33.21 625.76 37.41
  Q 627.14 37.97 625.65 37.96
  Q 599.18 37.89 573.47 45.47
  Q 571.97 45.91 570.76 47.44
  Q 563.72 56.32 561.58 69.04
  C 560.58 75.02 573.73 79.39 577.89 80.86
  Q 593.22 86.30 605.58 90.00
  Q 606.00 90.13 606.27 90.49
  Q 606.52 90.84 606.12 90.99
  Q 595.77 95.03 586.84 99.90
  Q 581.66 102.72 575.92 108.47
  C 570.93 113.47 573.74 117.20 576.43 121.91
  A 0.93 0.91 57.2 0 1 576.18 123.11
  Q 572.17 126.08 567.91 129.38
  Q 562.81 133.33 560.66 136.69
  Q 556.20 143.66 555.84 151.70
  A 0.62 0.62 0.0 0 1 555.07 152.28
  Q 476.33 133.66 399.32 156.48
  Z"
/>
<path fill="#ffa500" d="
  M 399.32 156.48
  Q 357.96 169.18 322.03 193.10
  L 321.35 192.29
  Q 320.99 191.85 320.46 192.05
  Q 319.69 192.34 318.89 192.31
  Q 318.42 192.30 318.23 192.73
  L 317.55 194.29
  A 0.88 0.88 0.0 0 1 315.98 194.38
  Q 315.43 193.43 315.96 192.36
  Q 316.21 191.86 315.99 191.35
  Q 315.72 190.74 316.01 190.15
  Q 316.22 189.71 316.06 189.25
  C 315.71 188.27 314.99 187.58 314.83 186.52
  Q 314.27 182.90 314.64 179.73
  Q 314.86 177.81 314.69 175.61
  Q 314.50 173.17 314.70 170.91
  Q 314.87 168.94 314.87 167.14
  Q 314.87 166.62 315.16 166.18
  Q 315.83 165.16 315.02 163.48
  Q 314.64 162.71 314.51 163.56
  Q 314.49 163.74 314.47 163.92
  Q 314.43 164.50 314.24 163.94
  Q 314.18 163.76 314.03 163.59
  Q 313.91 163.46 313.80 163.58
  Q 313.71 163.67 313.57 163.72
  Q 313.28 163.81 313.25 163.51
  Q 313.24 163.46 313.23 163.41
  Q 313.17 162.92 313.64 163.05
  Q 313.69 163.06 313.73 163.09
  Q 314.08 163.37 313.99 162.93
  Q 313.85 162.18 314.26 161.61
  Q 314.40 161.41 314.62 161.52
  Q 314.78 161.60 314.84 161.74
  Q 315.19 162.56 315.14 161.67
  Q 315.05 159.78 315.51 157.98
  Q 315.65 157.47 315.52 156.95
  Q 314.48 152.63 316.41 148.18
  A 1.31 1.30 54.8 0 0 316.52 147.53
  L 316.16 143.70
  Q 316.11 143.19 316.47 142.82
  Q 316.86 142.40 316.51 141.86
  A 0.93 0.91 37.6 0 1 316.40 141.10
  Q 316.69 140.16 316.37 139.25
  Q 316.19 138.75 316.19 138.22
  L 316.15 133.75
  Q 316.14 133.32 316.35 132.94
  Q 316.95 131.83 316.28 130.74
  Q 316.03 130.34 316.09 129.86
  C 316.28 128.41 315.88 127.05 316.08 125.65
  Q 316.38 123.56 315.93 121.39
  Q 315.70 120.24 315.93 119.14
  C 316.29 117.38 316.79 116.15 316.50 114.27
  Q 316.05 111.47 316.78 108.61
  A 0.09 0.08 -65.6 0 1 316.91 108.56
  Q 317.05 108.67 317.21 108.63
  Q 317.45 108.59 317.43 108.35
  Q 317.15 104.52 317.94 100.73
  Q 318.72 97.00 317.98 93.72
  A 1.10 1.09 0.5 0 1 319.31 92.42
  Q 320.00 92.58 320.71 92.58
  Q 321.69 92.58 320.73 92.35
  Q 319.80 92.12 319.65 91.24
  Q 319.57 90.72 319.13 90.43
  L 318.05 89.71
  Q 317.63 89.42 317.88 88.98
  Q 318.06 88.69 318.41 88.63
  Q 319.06 88.52 319.31 87.91
  Q 319.70 86.93 319.08 86.08
  Q 318.77 85.67 319.11 85.29
  Q 319.34 85.03 319.67 84.95
  Q 320.16 84.84 320.14 84.34
  Q 320.12 83.72 319.80 83.21
  Q 319.69 83.03 319.49 82.97
  Q 317.79 82.44 318.37 80.43
  A 0.61 0.61 0.0 0 1 318.77 80.02
  Q 319.10 79.91 319.12 80.17
  Q 319.13 80.29 319.14 80.17
  Q 319.14 79.99 319.14 79.82
  Q 319.14 79.48 318.87 79.29
  Q 318.30 78.89 317.88 79.40
  Q 317.33 80.04 317.42 79.20
  Q 317.80 75.30 316.74 71.21
  Q 316.60 70.68 316.75 70.16
  Q 317.04 69.14 316.59 68.24
  Q 316.45 67.96 316.52 67.66
  L 316.69 66.90
  Q 316.80 66.39 316.62 65.89
  L 315.75 63.59
  Q 315.56 63.09 315.74 62.59
  Q 316.20 61.28 315.45 60.17
  Q 315.19 59.77 315.13 59.30
  Q 314.99 58.01 315.05 56.66
  Q 315.12 55.25 314.93 53.87
  Q 314.35 49.73 314.80 45.63
  Q 314.83 45.37 315.06 45.21
  Q 315.17 45.13 315.24 45.02
  Q 315.39 44.77 315.41 44.48
  Q 315.53 42.85 316.51 41.60
  Q 316.82 41.20 316.86 40.70
  Q 316.99 38.92 315.87 37.38
  Q 351.58 23.16 389.30 15.67
  L 391.44 15.54
  A 0.49 0.47 -20.6 0 1 391.83 15.71
  Q 391.96 15.86 391.98 16.07
  Q 392.03 16.52 392.43 16.30
  Q 392.64 16.18 392.68 15.96
  Q 392.78 15.46 393.25 15.63
  Q 394.95 16.22 396.63 15.72
  Q 397.38 15.50 397.72 16.20
  Q 397.94 16.64 398.33 16.90
  Q 399.06 17.39 398.30 17.83
  Q 397.50 18.30 398.00 19.11
  Q 398.48 19.88 397.67 20.29
  Q 397.34 20.46 397.52 20.81
  Q 397.71 21.20 397.50 21.59
  Q 396.68 23.08 397.87 24.17
  Q 398.26 24.54 398.15 25.07
  Q 398.02 25.71 397.68 26.22
  A 1.85 1.80 59.0 0 0 397.40 27.41
  Q 397.68 30.00 396.86 32.18
  Q 396.28 33.73 396.21 35.56
  Q 396.15 37.50 396.12 39.36
  C 396.10 40.51 396.70 41.69 396.17 42.79
  Q 395.86 43.41 395.84 44.11
  L 395.45 53.78
  Q 395.44 54.09 395.25 54.35
  Q 394.70 55.09 394.89 55.97
  C 395.21 57.43 395.10 58.78 395.51 60.25
  Q 395.63 60.68 395.48 61.11
  Q 394.49 63.90 395.73 66.26
  Q 395.95 66.69 395.87 67.16
  Q 395.59 68.69 395.75 70.25
  Q 396.18 74.64 395.94 79.09
  C 395.86 80.45 396.57 81.80 395.84 83.04
  Q 395.59 83.46 395.82 83.89
  Q 396.08 84.38 395.99 84.93
  Q 395.63 86.98 395.51 89.11
  Q 395.41 90.80 395.74 92.36
  Q 396.04 93.78 395.41 95.11
  Q 395.15 95.67 395.27 96.27
  Q 395.88 99.25 395.78 102.61
  Q 395.75 103.73 395.98 104.85
  Q 396.16 105.72 396.03 106.61
  Q 395.92 107.31 396.05 108.04
  Q 396.54 110.72 396.06 113.23
  A 1.92 1.87 -50.3 0 0 396.14 114.24
  Q 396.43 115.01 396.18 115.82
  A 4.54 3.83 -52.6 0 0 396.33 118.95
  Q 396.64 119.60 397.18 119.13
  Q 397.52 118.84 397.72 119.24
  Q 398.23 120.28 397.84 121.35
  Q 397.79 121.48 397.85 121.62
  Q 398.44 122.87 397.26 123.73
  Q 395.38 125.09 396.52 127.09
  Q 396.68 127.38 396.61 127.71
  Q 396.39 128.80 395.90 129.86
  Q 395.75 130.19 395.85 130.55
  Q 396.54 133.04 395.69 135.24
  A 0.61 0.60 -61.5 0 0 395.89 135.94
  Q 396.19 136.16 396.14 136.50
  Q 395.74 139.27 395.34 142.04
  Q 395.27 142.54 394.93 142.92
  Q 394.38 143.55 394.88 144.30
  Q 395.19 144.76 395.74 144.88
  Q 396.41 145.03 396.56 145.90
  Q 396.66 146.46 396.14 146.24
  Q 395.66 146.04 395.13 145.98
  Q 394.62 145.91 394.45 146.40
  Q 394.17 147.23 394.69 147.95
  Q 394.97 148.34 394.89 148.82
  Q 394.17 152.88 398.30 153.93
  Q 398.76 154.05 398.78 154.52
  Q 398.79 154.70 398.91 154.83
  A 0.34 0.33 -29.6 0 0 399.25 154.92
  Q 399.52 154.82 399.74 154.98
  Q 400.22 155.30 399.74 155.63
  Q 399.32 155.93 399.32 156.48
  Z"
/>
<path fill="#028dbd" d="
  M 599.82 131.29
  L 588.74 117.86
  A 0.67 0.67 0.0 0 1 588.83 116.91
  Q 590.90 115.19 593.02 113.58
  C 596.42 111.02 599.20 112.35 603.55 113.92
  Q 621.19 120.29 637.86 127.41
  A 1.01 1.00 -55.3 0 0 638.95 127.21
  Q 653.30 113.54 668.13 100.55
  Q 669.36 99.47 667.87 98.81
  L 590.00 64.05
  Q 588.82 63.53 589.74 62.62
  C 594.29 58.13 597.47 58.03 603.99 59.01
  Q 652.52 66.31 696.61 74.70
  A 1.83 1.82 29.3 0 0 698.17 74.27
  Q 720.72 54.41 743.61 35.72
  C 751.61 29.19 760.97 22.14 770.25 17.78
  C 776.41 14.87 784.05 14.75 790.22 16.56
  C 800.44 19.56 786.80 32.44 783.67 35.44
  Q 750.33 67.44 724.98 90.08
  Q 724.09 90.87 724.06 92.09
  Q 723.09 123.75 721.65 155.38
  Q 721.37 161.37 716.22 165.33
  A 0.63 0.63 0.0 0 1 715.26 165.09
  L 694.11 116.64
  A 0.54 0.54 0.0 0 0 693.28 116.43
  C 673.06 131.94 650.15 145.72 627.38 155.13
  C 624.04 156.51 616.54 159.51 613.17 158.62
  Q 611.89 158.29 612.49 157.11
  L 614.55 153.01
  Q 614.83 152.45 614.24 152.23
  L 576.10 138.20
  A 0.52 0.52 0.0 0 1 576.00 137.27
  C 580.17 134.61 584.36 131.38 589.44 131.42
  Q 594.98 131.47 599.60 131.72
  A 0.26 0.26 0.0 0 0 599.82 131.29
  Z"
/>
<path fill="#ff9700" d="
  M 315.87 37.38
  Q 316.99 38.92 316.86 40.70
  Q 316.82 41.20 316.51 41.60
  Q 315.53 42.85 315.41 44.48
  Q 315.39 44.77 315.24 45.02
  Q 315.17 45.13 315.06 45.21
  Q 314.83 45.37 314.80 45.63
  Q 314.35 49.73 314.93 53.87
  Q 315.12 55.25 315.05 56.66
  Q 314.99 58.01 315.13 59.30
  Q 315.19 59.77 315.45 60.17
  Q 316.20 61.28 315.74 62.59
  Q 315.56 63.09 315.75 63.59
  L 316.62 65.89
  Q 316.80 66.39 316.69 66.90
  L 316.52 67.66
  Q 316.45 67.96 316.59 68.24
  Q 317.04 69.14 316.75 70.16
  Q 316.60 70.68 316.74 71.21
  Q 317.80 75.30 317.42 79.20
  Q 317.33 80.04 317.88 79.40
  Q 318.30 78.89 318.87 79.29
  Q 319.14 79.48 319.14 79.82
  Q 319.14 79.99 319.14 80.17
  Q 319.13 80.29 319.12 80.17
  Q 319.10 79.91 318.77 80.02
  A 0.61 0.61 0.0 0 0 318.37 80.43
  Q 317.79 82.44 319.49 82.97
  Q 319.69 83.03 319.80 83.21
  Q 320.12 83.72 320.14 84.34
  Q 320.16 84.84 319.67 84.95
  Q 319.34 85.03 319.11 85.29
  Q 318.77 85.67 319.08 86.08
  Q 319.70 86.93 319.31 87.91
  Q 319.06 88.52 318.41 88.63
  Q 318.06 88.69 317.88 88.98
  Q 317.63 89.42 318.05 89.71
  L 319.13 90.43
  Q 319.57 90.72 319.65 91.24
  Q 319.80 92.12 320.73 92.35
  Q 321.69 92.58 320.71 92.58
  Q 320.00 92.58 319.31 92.42
  A 1.10 1.09 0.5 0 0 317.98 93.72
  Q 318.72 97.00 317.94 100.73
  Q 317.15 104.52 317.43 108.35
  Q 317.45 108.59 317.21 108.63
  Q 317.05 108.67 316.91 108.56
  A 0.09 0.08 -65.6 0 0 316.78 108.61
  Q 316.05 111.47 316.50 114.27
  C 316.79 116.15 316.29 117.38 315.93 119.14
  Q 315.70 120.24 315.93 121.39
  Q 316.38 123.56 316.08 125.65
  C 315.88 127.05 316.28 128.41 316.09 129.86
  Q 316.03 130.34 316.28 130.74
  Q 316.95 131.83 316.35 132.94
  Q 316.14 133.32 316.15 133.75
  L 316.19 138.22
  Q 316.19 138.75 316.37 139.25
  Q 316.69 140.16 316.40 141.10
  A 0.93 0.91 37.6 0 0 316.51 141.86
  Q 316.86 142.40 316.47 142.82
  Q 316.11 143.19 316.16 143.70
  L 316.52 147.53
  A 1.31 1.30 54.8 0 1 316.41 148.18
  Q 314.48 152.63 315.52 156.95
  Q 315.65 157.47 315.51 157.98
  Q 315.05 159.78 315.14 161.67
  Q 315.19 162.56 314.84 161.74
  Q 314.78 161.60 314.62 161.52
  Q 314.40 161.41 314.26 161.61
  Q 313.85 162.18 313.99 162.93
  Q 314.08 163.37 313.73 163.09
  Q 313.69 163.06 313.64 163.05
  Q 313.17 162.92 313.23 163.41
  Q 313.24 163.46 313.25 163.51
  Q 313.28 163.81 313.57 163.72
  Q 313.71 163.67 313.80 163.58
  Q 313.91 163.46 314.03 163.59
  Q 314.18 163.76 314.24 163.94
  Q 314.43 164.50 314.47 163.92
  Q 314.49 163.74 314.51 163.56
  Q 314.64 162.71 315.02 163.48
  Q 315.83 165.16 315.16 166.18
  Q 314.87 166.62 314.87 167.14
  Q 314.87 168.94 314.70 170.91
  Q 314.50 173.17 314.69 175.61
  Q 314.86 177.81 314.64 179.73
  Q 314.27 182.90 314.83 186.52
  C 314.99 187.58 315.71 188.27 316.06 189.25
  Q 316.22 189.71 316.01 190.15
  Q 315.72 190.74 315.99 191.35
  Q 316.21 191.86 315.96 192.36
  Q 315.43 193.43 315.98 194.38
  A 0.88 0.88 0.0 0 0 317.55 194.29
  L 318.23 192.73
  Q 318.42 192.30 318.89 192.31
  Q 319.69 192.34 320.46 192.05
  Q 320.99 191.85 321.35 192.29
  L 322.03 193.10
  Q 281.33 220.34 252.60 257.60
  Q 203.92 320.73 193.39 400.02
  Q 189.77 427.26 191.24 452.75
  Q 192.38 472.68 192.58 478.95
  Q 191.56 478.79 190.86 478.56
  Q 175.55 473.53 158.71 469.07
  C 140.80 464.32 123.29 461.42 104.56 461.13
  Q 84.70 460.82 66.73 467.62
  Q 64.46 468.49 56.54 472.52
  Q 55.54 469.81 55.04 466.00
  Q 50.38 430.63 53.07 395.00
  C 60.45 297.17 101.77 205.77 169.88 135.34
  C 210.78 93.05 260.71 59.13 315.87 37.38
  Z"
/>
<path fill="#ff9700" d="
  M 748.55 171.81
  Q 744.77 173.29 741.33 174.78
  Q 739.26 175.67 740.44 173.75
  C 744.46 167.27 745.38 161.74 745.76 153.48
  Q 746.68 133.22 747.48 113.18
  A 0.47 0.47 0.0 0 1 748.26 112.84
  Q 770.40 132.44 789.74 155.16
  A 0.76 0.76 0.0 0 1 789.42 156.37
  Q 769.22 163.71 748.55 171.81
  Z"
/>
<path fill="#ffa500" d="
  M 673.38 203.95
  Q 670.70 205.23 668.00 206.37
  Q 666.96 206.81 666.07 206.16
  Q 646.59 191.92 623.03 179.47
  A 0.54 0.54 0.0 0 1 623.12 178.47
  Q 628.91 176.65 634.96 174.03
  Q 660.75 162.83 684.40 147.94
  A 0.96 0.96 0.0 0 1 685.80 148.39
  Q 691.39 161.93 697.29 175.72
  C 699.44 180.72 706.11 184.34 711.00 186.14
  Q 712.91 186.85 711.01 187.60
  Q 692.14 195.03 673.38 203.95
  Z"
/>
<path fill="#ff9700" d="
  M 807.76 262.83
  L 807.17 262.32
  Q 806.82 262.02 806.79 261.56
  Q 806.75 261.00 807.35 260.90
  Q 807.62 260.85 807.62 260.58
  Q 807.64 259.56 808.14 258.31
  Q 808.38 257.69 807.81 258.04
  Q 807.55 258.20 807.29 258.11
  Q 806.71 257.93 806.97 257.38
  L 807.34 256.58
  Q 807.59 256.03 807.35 255.48
  Q 806.14 252.81 806.06 250.00
  Q 806.05 249.48 806.41 249.09
  Q 806.70 248.78 806.40 248.43
  Q 806.12 248.11 806.12 247.69
  C 806.14 246.17 805.73 244.85 805.93 243.34
  Q 806.32 240.47 805.24 237.67
  A 1.11 1.07 47.0 0 1 805.25 236.83
  Q 805.41 236.43 805.38 235.99
  Q 805.02 231.19 803.77 226.74
  Q 803.64 226.28 803.80 225.82
  C 803.94 225.41 804.08 224.94 804.06 224.49
  Q 803.92 220.99 804.71 217.61
  Q 805.19 215.58 805.35 213.44
  C 805.40 212.78 804.87 212.30 804.94 211.53
  Q 805.20 208.73 805.55 206.15
  Q 805.62 205.65 805.44 205.18
  Q 805.30 204.84 805.26 204.48
  Q 804.97 201.84 804.91 198.61
  Q 804.90 198.06 804.56 197.63
  Q 803.87 196.77 803.95 195.74
  Q 804.02 194.74 803.80 193.78
  Q 803.21 191.19 802.47 188.92
  Q 802.30 188.41 802.51 187.91
  Q 802.76 187.29 803.21 186.81
  Q 803.48 186.52 803.52 186.13
  L 804.08 180.59
  Q 804.15 179.96 804.78 179.93
  L 806.58 179.86
  Q 807.04 179.84 807.44 179.63
  Q 809.05 178.76 810.92 178.49
  Q 811.53 178.41 812.00 178.01
  Q 812.90 177.27 814.02 176.95
  Q 814.65 176.77 814.98 176.21
  Q 815.53 175.28 816.85 174.00
  Q 817.86 173.02 817.45 171.92
  Q 827.36 168.36 835.74 166.67
  Q 842.45 165.32 848.25 166.14
  Q 858.55 167.61 856.63 177.04
  Q 855.89 180.71 851.33 187.57
  Q 827.20 223.84 807.76 262.83
  Z"
/>
<path fill="#fb850c" d="
  M 817.45 171.92
  Q 817.86 173.02 816.85 174.00
  Q 815.53 175.28 814.98 176.21
  Q 814.65 176.77 814.02 176.95
  Q 812.90 177.27 812.00 178.01
  Q 811.53 178.41 810.92 178.49
  Q 809.05 178.76 807.44 179.63
  Q 807.04 179.84 806.58 179.86
  L 804.78 179.93
  Q 804.15 179.96 804.08 180.59
  L 803.52 186.13
  Q 803.48 186.52 803.21 186.81
  Q 802.76 187.29 802.51 187.91
  Q 802.30 188.41 802.47 188.92
  Q 803.21 191.19 803.80 193.78
  Q 804.02 194.74 803.95 195.74
  Q 803.87 196.77 804.56 197.63
  Q 804.90 198.06 804.91 198.61
  Q 804.97 201.84 805.26 204.48
  Q 805.30 204.84 805.44 205.18
  Q 805.62 205.65 805.55 206.15
  Q 805.20 208.73 804.94 211.53
  C 804.87 212.30 805.40 212.78 805.35 213.44
  Q 805.19 215.58 804.71 217.61
  Q 803.92 220.99 804.06 224.49
  C 804.08 224.94 803.94 225.41 803.80 225.82
  Q 803.64 226.28 803.77 226.74
  Q 805.02 231.19 805.38 235.99
  Q 805.41 236.43 805.25 236.83
  A 1.11 1.07 47.0 0 0 805.24 237.67
  Q 806.32 240.47 805.93 243.34
  C 805.73 244.85 806.14 246.17 806.12 247.69
  Q 806.12 248.11 806.40 248.43
  Q 806.70 248.78 806.41 249.09
  Q 806.05 249.48 806.06 250.00
  Q 806.14 252.81 807.35 255.48
  Q 807.59 256.03 807.34 256.58
  L 806.97 257.38
  Q 806.71 257.93 807.29 258.11
  Q 807.55 258.20 807.81 258.04
  Q 808.38 257.69 808.14 258.31
  Q 807.64 259.56 807.62 260.58
  Q 807.62 260.85 807.35 260.90
  Q 806.75 261.00 806.79 261.56
  Q 806.82 262.02 807.17 262.32
  L 807.76 262.83
  C 792.28 294.25 779.55 326.84 767.82 359.79
  A 2.40 2.40 0.0 0 1 766.12 361.31
  Q 724.16 371.54 682.78 384.35
  Q 683.45 383.61 682.48 383.01
  Q 682.01 382.71 681.44 382.90
  Q 680.99 383.05 680.75 382.64
  Q 680.23 381.73 679.35 380.99
  Q 678.80 380.51 678.73 379.81
  Q 678.65 378.93 679.27 378.31
  Q 679.56 378.02 679.22 377.80
  Q 678.59 377.37 678.93 376.65
  A 1.02 1.01 -36.6 0 0 679.01 376.13
  L 678.69 373.70
  Q 678.63 373.23 678.85 372.81
  Q 679.09 372.35 678.70 371.99
  Q 678.34 371.65 678.17 371.17
  Q 677.49 369.22 678.01 367.47
  Q 678.16 366.95 677.91 366.49
  Q 677.03 364.86 677.78 363.51
  Q 678.08 362.96 677.76 362.41
  Q 676.91 361.00 677.03 359.39
  Q 677.47 353.67 677.41 348.22
  C 677.39 346.51 677.93 345.33 676.85 343.70
  Q 676.56 343.25 676.91 342.84
  C 677.24 342.47 677.36 341.92 677.39 341.45
  Q 677.62 337.80 677.93 333.86
  Q 677.97 333.36 677.71 332.93
  Q 677.46 332.52 677.80 332.17
  Q 678.16 331.81 678.09 331.30
  Q 677.70 328.38 678.38 325.24
  Q 678.79 323.34 678.87 321.15
  Q 678.95 319.03 679.09 316.90
  Q 679.63 308.70 679.46 297.37
  C 679.44 296.23 679.78 295.11 679.74 294.00
  Q 679.69 292.72 679.75 291.48
  Q 679.90 287.95 680.44 284.67
  Q 680.63 283.52 679.79 282.83
  Q 679.57 282.66 679.72 282.42
  Q 680.78 280.82 680.24 278.92
  Q 680.11 278.43 680.45 278.07
  Q 680.74 277.77 680.55 277.39
  Q 680.35 277.02 680.34 276.59
  Q 680.12 270.08 680.32 263.24
  Q 680.43 259.83 680.34 256.28
  Q 680.24 252.62 680.08 249.43
  Q 679.97 247.11 680.40 244.64
  Q 680.87 241.99 680.64 239.88
  Q 680.53 238.90 680.54 237.93
  Q 680.55 236.99 681.09 236.21
  Q 682.15 234.67 681.88 232.93
  A 1.32 1.31 77.5 0 0 680.20 231.86
  Q 678.50 232.36 676.90 232.19
  A 0.30 0.29 -47.4 0 1 676.88 231.61
  Q 678.93 231.20 677.95 230.31
  A 0.48 0.48 0.0 0 0 677.25 230.37
  Q 676.88 230.84 676.33 230.89
  Q 675.92 230.93 676.27 230.71
  Q 678.95 229.04 681.91 228.00
  Q 682.39 227.83 682.58 227.36
  Q 682.74 226.98 683.04 226.69
  Q 683.24 226.49 684.09 226.01
  Q 684.77 225.63 685.00 224.86
  Q 688.31 223.45 691.64 221.94
  Q 743.01 198.70 795.98 179.38
  Q 806.62 175.50 817.45 171.92
  Z
  M 792.20 195.74
  C 778.02 201.32 763.33 207.95 749.02 213.95
  A 4.42 4.42 0.0 0 0 747.14 215.44
  L 740.45 224.67
  Q 739.68 225.74 740.92 225.30
  Q 746.32 223.37 750.96 221.39
  Q 764.69 215.49 779.51 209.21
  C 782.69 207.87 786.19 206.73 788.35 203.93
  Q 790.96 200.53 793.22 196.97
  Q 794.59 194.80 792.20 195.74
  Z"
/>
<path fill="#ffffff" d="
  M 749.02 213.95
  C 763.33 207.95 778.02 201.32 792.20 195.74
  Q 794.59 194.80 793.22 196.97
  Q 790.96 200.53 788.35 203.93
  C 786.19 206.73 782.69 207.87 779.51 209.21
  Q 764.69 215.49 750.96 221.39
  Q 746.32 223.37 740.92 225.30
  Q 739.68 225.74 740.45 224.67
  L 747.14 215.44
  A 4.42 4.42 0.0 0 1 749.02 213.95
  Z"
/>
<path fill="#f36323" d="
  M 290.95 519.54
  Q 287.89 518.70 286.74 517.60
  Q 289.92 511.21 293.07 504.77
  Q 308.38 473.38 327.19 446.39
  Q 342.48 424.46 361.85 403.63
  C 366.87 398.23 369.25 389.76 370.56 382.62
  Q 372.26 373.38 373.39 364.84
  Q 373.55 363.66 372.63 364.41
  Q 369.81 366.69 367.16 369.03
  Q 343.83 389.70 323.91 416.12
  Q 291.94 458.51 270.70 508.51
  Q 270.60 508.74 269.67 509.92
  Q 268.23 509.91 265.65 508.37
  Q 270.63 488.31 278.64 469.18
  C 279.35 467.50 279.91 465.94 279.55 464.08
  Q 277.46 453.29 275.53 443.29
  C 275.24 441.75 276.60 440.32 277.64 439.32
  Q 284.09 433.11 291.15 430.31
  Q 292.06 429.95 291.88 428.99
  Q 289.12 414.04 286.65 400.23
  Q 286.36 398.63 287.43 397.43
  C 299.10 384.34 313.25 377.65 330.16 374.91
  Q 331.27 374.73 331.92 373.83
  Q 356.47 339.17 384.27 308.20
  Q 385.22 307.13 383.83 307.48
  Q 372.96 310.14 362.93 314.80
  Q 362.45 315.02 362.02 314.73
  Q 360.95 314.03 360.01 313.17
  Q 350.91 304.89 341.80 301.48
  C 331.92 297.79 320.28 294.80 309.43 292.24
  A 0.34 0.33 -67.1 0 1 309.23 291.74
  Q 309.39 291.47 309.68 291.37
  Q 358.75 274.19 412.75 259.71
  C 414.69 259.19 416.50 257.98 417.98 256.58
  Q 429.58 245.59 440.65 237.97
  Q 445.77 234.44 452.79 231.72
  C 472.48 224.11 492.71 219.10 513.49 216.30
  Q 560.51 209.95 610.73 215.06
  C 613.52 215.35 615.85 215.92 618.10 217.74
  Q 626.06 224.17 634.80 230.87
  A 0.63 0.63 0.0 0 1 634.71 231.92
  Q 629.90 234.47 625.60 236.51
  Q 521.64 286.07 432.83 358.78
  Q 387.78 395.65 349.07 439.58
  Q 322.90 469.29 300.62 504.35
  Q 295.83 511.88 290.95 519.54
  Z"
/>
<path fill="#f77417" d="
  M 685.00 224.86
  Q 684.77 225.63 684.09 226.01
  Q 683.24 226.49 683.04 226.69
  Q 682.74 226.98 682.58 227.36
  Q 682.39 227.83 681.91 228.00
  Q 678.95 229.04 676.27 230.71
  Q 675.92 230.93 676.33 230.89
  Q 676.88 230.84 677.25 230.37
  A 0.48 0.48 0.0 0 1 677.95 230.31
  Q 678.93 231.20 676.88 231.61
  A 0.30 0.29 -47.4 0 0 676.90 232.19
  Q 678.50 232.36 680.20 231.86
  A 1.32 1.31 77.5 0 1 681.88 232.93
  Q 682.15 234.67 681.09 236.21
  Q 680.55 236.99 680.54 237.93
  Q 680.53 238.90 680.64 239.88
  Q 680.87 241.99 680.40 244.64
  Q 679.97 247.11 680.08 249.43
  Q 680.24 252.62 680.34 256.28
  Q 680.43 259.83 680.32 263.24
  Q 680.12 270.08 680.34 276.59
  Q 680.35 277.02 680.55 277.39
  Q 680.74 277.77 680.45 278.07
  Q 680.11 278.43 680.24 278.92
  Q 680.78 280.82 679.72 282.42
  Q 679.57 282.66 679.79 282.83
  Q 680.63 283.52 680.44 284.67
  Q 679.90 287.95 679.75 291.48
  Q 679.69 292.72 679.74 294.00
  C 679.78 295.11 679.44 296.23 679.46 297.37
  Q 679.63 308.70 679.09 316.90
  Q 678.95 319.03 678.87 321.15
  Q 678.79 323.34 678.38 325.24
  Q 677.70 328.38 678.09 331.30
  Q 678.16 331.81 677.80 332.17
  Q 677.46 332.52 677.71 332.93
  Q 677.97 333.36 677.93 333.86
  Q 677.62 337.80 677.39 341.45
  C 677.36 341.92 677.24 342.47 676.91 342.84
  Q 676.56 343.25 676.85 343.70
  C 677.93 345.33 677.39 346.51 677.41 348.22
  Q 677.47 353.67 677.03 359.39
  Q 676.91 361.00 677.76 362.41
  Q 678.08 362.96 677.78 363.51
  Q 677.03 364.86 677.91 366.49
  Q 678.16 366.95 678.01 367.47
  Q 677.49 369.22 678.17 371.17
  Q 678.34 371.65 678.70 371.99
  Q 679.09 372.35 678.85 372.81
  Q 678.63 373.23 678.69 373.70
  L 679.01 376.13
  A 1.02 1.01 -36.6 0 1 678.93 376.65
  Q 678.59 377.37 679.22 377.80
  Q 679.56 378.02 679.27 378.31
  Q 678.65 378.93 678.73 379.81
  Q 678.80 380.51 679.35 380.99
  Q 680.23 381.73 680.75 382.64
  Q 680.99 383.05 681.44 382.90
  Q 682.01 382.71 682.48 383.01
  Q 683.45 383.61 682.78 384.35
  L 634.48 400.42
  Q 633.95 400.43 633.74 400.20
  Q 633.32 399.75 633.84 399.43
  Q 634.29 399.16 634.08 398.70
  Q 633.96 398.46 633.95 398.20
  Q 633.80 394.92 632.99 391.73
  Q 632.86 391.22 633.00 390.72
  Q 634.00 387.28 633.45 383.69
  Q 633.34 382.96 633.49 382.24
  Q 634.08 379.50 633.29 376.68
  A 1.89 1.86 49.6 0 1 633.38 375.42
  Q 633.71 374.68 633.40 373.99
  Q 633.08 373.25 633.16 372.46
  Q 633.46 369.18 633.16 366.52
  Q 632.99 365.03 633.64 363.73
  Q 633.87 363.27 633.81 362.77
  Q 632.44 349.92 633.13 337.15
  Q 633.18 336.29 633.17 335.43
  Q 633.17 334.01 633.35 332.50
  Q 633.91 327.67 633.32 322.13
  Q 633.15 320.53 633.34 318.69
  A 1.40 1.36 -61.1 0 0 633.08 317.74
  Q 632.44 316.86 632.61 315.77
  Q 633.43 310.40 632.52 305.35
  Q 632.27 303.95 632.55 302.56
  Q 632.86 301.05 632.68 299.55
  Q 632.45 297.66 632.59 295.24
  Q 632.72 293.03 632.78 290.86
  Q 632.86 287.48 633.64 284.41
  Q 633.76 283.95 633.34 283.71
  Q 633.14 283.60 633.21 283.38
  Q 633.50 282.37 634.28 281.70
  Q 634.70 281.34 634.41 280.87
  L 633.63 279.62
  Q 633.37 279.21 633.47 278.74
  Q 634.87 271.71 633.56 264.45
  Q 633.17 262.31 633.40 260.42
  Q 633.73 257.68 632.56 255.08
  Q 632.38 254.66 632.67 254.32
  Q 632.84 254.13 633.06 254.01
  Q 633.50 253.79 633.56 253.30
  Q 633.68 252.22 634.66 251.77
  Q 635.09 251.57 635.11 251.10
  L 635.22 249.25
  L 685.00 224.86
  Z"
/>
<path fill="#ffa500" d="
  M 807.37 322.92
  Q 823.75 281.49 845.86 242.55
  A 0.73 0.73 0.0 0 1 847.15 242.59
  Q 873.59 296.54 883.81 356.23
  Q 884.01 357.40 882.98 357.98
  L 875.34 362.28
  A 1.76 1.74 -42.2 0 1 873.50 362.20
  C 852.36 347.68 826.15 342.15 800.75 343.33
  A 0.84 0.84 0.0 0 1 799.92 342.19
  Q 803.55 332.58 807.37 322.92
  Z"
/>
<path fill="#f36323" d="
  M 635.22 249.25
  L 635.11 251.10
  Q 635.09 251.57 634.66 251.77
  Q 633.68 252.22 633.56 253.30
  Q 633.50 253.79 633.06 254.01
  Q 632.84 254.13 632.67 254.32
  Q 632.38 254.66 632.56 255.08
  Q 633.73 257.68 633.40 260.42
  Q 633.17 262.31 633.56 264.45
  Q 634.87 271.71 633.47 278.74
  Q 633.37 279.21 633.63 279.62
  L 634.41 280.87
  Q 634.70 281.34 634.28 281.70
  Q 633.50 282.37 633.21 283.38
  Q 633.14 283.60 633.34 283.71
  Q 633.76 283.95 633.64 284.41
  Q 632.86 287.48 632.78 290.86
  Q 632.72 293.03 632.59 295.24
  Q 632.45 297.66 632.68 299.55
  Q 632.86 301.05 632.55 302.56
  Q 632.27 303.95 632.52 305.35
  Q 633.43 310.40 632.61 315.77
  Q 632.44 316.86 633.08 317.74
  A 1.40 1.36 -61.1 0 1 633.34 318.69
  Q 633.15 320.53 633.32 322.13
  Q 633.91 327.67 633.35 332.50
  Q 633.17 334.01 633.17 335.43
  Q 633.18 336.29 633.13 337.15
  Q 632.44 349.92 633.81 362.77
  Q 633.87 363.27 633.64 363.73
  Q 632.99 365.03 633.16 366.52
  Q 633.46 369.18 633.16 372.46
  Q 633.08 373.25 633.40 373.99
  Q 633.71 374.68 633.38 375.42
  A 1.89 1.86 49.6 0 0 633.29 376.68
  Q 634.08 379.50 633.49 382.24
  Q 633.34 382.96 633.45 383.69
  Q 634.00 387.28 633.00 390.72
  Q 632.86 391.22 632.99 391.73
  Q 633.80 394.92 633.95 398.20
  Q 633.96 398.46 634.08 398.70
  Q 634.29 399.16 633.84 399.43
  Q 633.32 399.75 633.74 400.20
  Q 633.95 400.43 634.48 400.42
  Q 542.29 432.93 456.54 479.78
  Q 444.09 486.59 418.32 502.32
  Q 385.42 522.41 354.59 545.56
  Q 353.62 546.28 352.16 547.10
  L 308.67 527.38
  Q 316.16 515.15 321.67 507.44
  Q 367.08 443.91 426.05 391.31
  C 489.13 335.03 560.01 287.74 635.22 249.25
  Z"
/>
<path fill="#ffffff" d="
  M 286.74 517.60
  L 269.67 509.92
  Q 270.60 508.74 270.70 508.51
  Q 291.94 458.51 323.91 416.12
  Q 343.83 389.70 367.16 369.03
  Q 369.81 366.69 372.63 364.41
  Q 373.55 363.66 373.39 364.84
  Q 372.26 373.38 370.56 382.62
  C 369.25 389.76 366.87 398.23 361.85 403.63
  Q 342.48 424.46 327.19 446.39
  Q 308.38 473.38 293.07 504.77
  Q 289.92 511.21 286.74 517.60
  Z"
/>
<path fill="#f77417" d="
  M 610.81 453.43
  Q 610.85 452.30 611.20 451.43
  Q 611.24 451.33 611.17 451.26
  Q 611.02 451.09 610.94 451.19
  Q 610.53 451.71 610.43 451.06
  Q 610.09 448.99 609.85 446.96
  C 609.70 445.72 610.42 444.77 610.90 443.70
  Q 611.11 443.25 610.86 442.83
  Q 610.28 441.84 610.37 440.75
  Q 610.40 440.42 610.10 440.27
  Q 609.98 440.20 609.88 440.09
  Q 609.63 439.83 609.57 439.48
  Q 608.76 435.19 609.71 431.06
  A 2.11 2.08 41.5 0 0 609.63 429.86
  Q 609.02 428.27 609.79 426.81
  Q 610.05 426.34 609.78 425.88
  Q 609.21 424.86 608.05 424.61
  Q 607.68 424.53 607.55 424.18
  L 607.26 423.42
  Q 658.84 403.99 711.80 388.68
  Q 736.98 381.40 760.98 375.16
  Q 761.48 375.03 761.76 375.06
  Q 762.32 375.13 762.15 375.67
  L 749.74 413.98
  Q 749.23 415.56 747.60 415.94
  Q 723.85 421.51 700.23 427.89
  Q 655.32 440.03 610.81 453.43
  Z"
/>
<path fill="#028dbd" d="
  M 834.44 487.56
  L 836.17 484.04
  Q 847.56 456.93 858.02 430.11
  Q 863.80 415.29 869.72 404.08
  C 878.56 387.33 894.64 371.42 914.64 380.06
  C 926.74 385.29 934.96 398.89 938.80 411.45
  C 946.37 436.12 941.62 461.87 929.83 484.44
  Q 881.54 576.88 784.28 611.66
  C 767.11 617.80 747.37 622.71 728.45 625.66
  Q 679.03 633.39 627.50 628.01
  Q 614.70 626.68 602.11 624.22
  Q 599.06 623.62 602.17 623.68
  Q 616.77 623.93 633.51 622.98
  C 687.41 619.93 740.99 605.63 780.70 568.13
  C 797.22 552.52 810.66 533.96 821.56 513.58
  Q 829.37 498.98 834.44 487.56
  Z"
/>
<path fill="#f36323" d="
  M 607.26 423.42
  L 607.55 424.18
  Q 607.68 424.53 608.05 424.61
  Q 609.21 424.86 609.78 425.88
  Q 610.05 426.34 609.79 426.81
  Q 609.02 428.27 609.63 429.86
  A 2.11 2.08 41.5 0 1 609.71 431.06
  Q 608.76 435.19 609.57 439.48
  Q 609.63 439.83 609.88 440.09
  Q 609.98 440.20 610.10 440.27
  Q 610.40 440.42 610.37 440.75
  Q 610.28 441.84 610.86 442.83
  Q 611.11 443.25 610.90 443.70
  C 610.42 444.77 609.70 445.72 609.85 446.96
  Q 610.09 448.99 610.43 451.06
  Q 610.53 451.71 610.94 451.19
  Q 611.02 451.09 611.17 451.26
  Q 611.24 451.33 611.20 451.43
  Q 610.85 452.30 610.81 453.43
  Q 528.37 479.03 452.97 512.17
  Q 412.73 529.85 369.66 553.38
  Q 368.73 553.89 367.03 554.02
  Q 366.84 553.71 365.41 553.01
  Q 400.48 526.95 437.66 504.92
  Q 518.89 456.77 607.26 423.42
  Z"
/>
<path fill="#ffb501" d="
  M 836.17 484.04
  L 834.44 487.56
  Q 832.42 486.10 830.71 484.35
  Q 827.46 481.04 827.43 481.01
  C 817.13 471.72 803.94 466.53 790.14 464.87
  C 771.02 462.57 751.18 464.72 731.81 469.14
  Q 705.40 475.18 679.69 484.48
  Q 641.70 498.23 602.24 515.93
  C 554.55 537.31 508.50 559.87 460.66 582.91
  Q 454.58 585.84 448.19 588.59
  L 385.99 562.23
  Q 386.32 561.60 387.00 561.28
  C 444.50 533.67 503.20 506.47 562.25 484.10
  Q 594.93 471.72 627.38 462.50
  Q 657.17 454.03 684.71 449.76
  C 713.60 445.28 743.43 444.26 772.21 450.42
  Q 802.76 456.95 827.53 476.17
  Q 831.59 479.32 836.17 484.04
  Z"
/>
<path fill="#03ccea" d="
  M 192.58 478.95
  Q 192.61 479.28 193.02 479.43
  Q 230.38 492.55 265.65 508.37
  Q 268.23 509.91 269.67 509.92
  L 286.74 517.60
  Q 287.89 518.70 290.95 519.54
  L 308.67 527.38
  L 352.16 547.10
  L 365.41 553.01
  Q 366.84 553.71 367.03 554.02
  L 385.99 562.23
  L 448.19 588.59
  Q 483.49 603.02 519.49 615.08
  C 561.33 629.09 605.00 639.96 648.78 644.91
  C 692.64 649.86 738.16 647.53 780.50 634.68
  C 827.00 620.57 867.57 593.89 901.26 557.93
  Q 924.83 532.76 943.78 503.08
  Q 946.36 499.04 949.03 494.88
  Q 950.18 493.09 949.84 495.19
  Q 941.50 546.57 921.73 594.51
  Q 913.84 613.63 898.85 639.71
  Q 893.90 645.24 889.68 651.24
  Q 882.76 661.06 881.06 663.15
  C 859.12 690.13 831.71 712.04 800.43 727.24
  C 766.56 743.70 728.13 753.05 690.11 756.53
  Q 673.82 758.02 652.50 758.61
  Q 630.76 759.21 611.57 756.05
  C 584.34 751.56 557.67 742.81 532.50 731.94
  Q 507.60 721.19 483.53 708.48
  Q 464.16 698.37 445.29 687.12
  C 436.24 681.73 426.77 676.39 418.14 670.99
  Q 399.57 659.40 381.04 647.69
  Q 332.80 616.23 284.54 584.73
  Q 252.99 564.15 226.51 548.46
  C 204.46 535.39 181.78 523.20 158.64 513.10
  C 142.67 506.13 126.51 500.64 109.50 497.45
  Q 99.34 495.55 89.72 495.26
  Q 55.80 494.64 34.82 518.55
  Q 26.19 528.39 19.77 543.00
  Q 12.26 560.11 8.60 578.64
  Q 8.56 578.84 8.36 578.81
  L 8.35 578.81
  Q 8.15 578.78 8.17 578.59
  C 10.18 554.87 14.52 531.45 24.22 510.00
  Q 34.96 486.23 56.54 472.52
  Q 64.46 468.49 66.73 467.62
  Q 84.70 460.82 104.56 461.13
  C 123.29 461.42 140.80 464.32 158.71 469.07
  Q 175.55 473.53 190.86 478.56
  Q 191.56 478.79 192.58 478.95
  Z"
/>
<path fill="#026daa" d="
  M 381.04 647.69
  Q 380.94 649.37 380.29 649.64
  Q 379.81 649.84 380.00 650.32
  Q 380.18 650.76 380.30 651.27
  Q 380.43 651.85 379.86 651.69
  Q 379.50 651.59 379.35 651.93
  Q 377.34 656.72 375.61 662.75
  C 375.40 663.47 374.88 663.97 374.69 664.66
  Q 373.43 669.39 371.22 674.32
  C 370.72 675.44 370.87 676.73 370.33 677.80
  Q 368.81 680.88 367.66 684.50
  A 18.32 13.52 65.0 0 0 366.97 687.90
  Q 366.81 689.59 365.93 691.08
  Q 365.68 691.50 365.63 691.99
  Q 365.53 693.00 364.92 693.93
  Q 363.96 695.38 364.05 697.04
  Q 364.07 697.55 363.63 697.81
  Q 363.06 698.15 363.28 698.76
  Q 363.43 699.15 363.25 699.54
  Q 362.68 700.78 362.60 702.07
  Q 362.58 702.41 362.30 702.59
  L 361.89 702.87
  Q 361.36 703.22 361.41 703.85
  C 361.48 704.81 361.04 705.41 361.18 706.40
  Q 361.49 708.47 360.81 710.64
  Q 360.66 711.13 360.16 711.23
  Q 359.82 711.30 359.67 711.64
  Q 359.58 711.85 359.77 711.97
  Q 359.91 712.05 360.04 712.11
  Q 360.54 712.34 360.28 712.82
  C 359.74 713.84 360.16 715.01 359.67 715.82
  Q 359.41 716.23 358.96 716.38
  Q 358.67 716.49 358.70 716.80
  Q 358.72 716.99 358.87 717.11
  Q 359.24 717.44 358.94 717.83
  Q 358.58 718.29 358.83 718.79
  Q 359.06 719.24 359.07 719.75
  Q 359.08 721.19 358.82 722.63
  Q 358.72 723.13 358.24 723.17
  Q 357.81 723.20 358.10 723.53
  Q 358.22 723.67 358.40 723.62
  Q 358.81 723.52 358.49 723.80
  Q 358.38 723.90 358.24 723.90
  Q 358.02 723.90 357.84 723.82
  Q 357.72 723.76 357.60 723.70
  Q 357.25 723.52 356.92 723.72
  Q 356.56 723.95 356.47 724.38
  Q 356.39 724.77 356.72 724.98
  Q 357.35 725.40 357.13 726.13
  A 0.63 0.62 26.1 0 0 357.37 726.81
  Q 357.49 726.89 357.62 726.86
  Q 357.97 726.77 357.94 727.12
  Q 357.92 727.32 357.80 727.49
  Q 357.68 727.66 357.48 727.58
  Q 356.76 727.29 355.63 727.84
  Q 316.31 695.94 279.81 660.61
  L 244.62 626.55
  Q 203.77 585.37 169.47 553.03
  Q 158.36 542.55 142.28 528.97
  Q 123.82 513.39 104.84 502.39
  Q 98.63 498.78 89.72 495.26
  Q 99.34 495.55 109.50 497.45
  C 126.51 500.64 142.67 506.13 158.64 513.10
  C 181.78 523.20 204.46 535.39 226.51 548.46
  Q 252.99 564.15 284.54 584.73
  Q 332.80 616.23 381.04 647.69
  Z"
/>
<path fill="#ff9700" d="
  M 244.62 626.55
  L 279.81 660.61
  Q 277.75 661.78 275.76 662.48
  C 244.45 673.54 211.57 682.78 178.91 687.96
  Q 142.70 693.70 110.84 690.22
  C 76.29 686.45 45.40 671.71 23.58 644.51
  Q 22.81 643.56 23.65 644.45
  Q 39.05 660.72 61.40 665.84
  Q 80.43 670.19 102.23 668.35
  Q 128.70 666.11 158.90 657.39
  C 187.27 649.20 214.29 639.03 241.46 627.77
  Q 242.08 627.52 243.09 627.39
  Q 244.52 627.21 244.62 626.55
  Z"
/>
<path fill="#028dbd" d="
  M 898.85 639.71
  Q 884.35 666.37 867.86 687.35
  Q 793.43 782.05 676.01 809.09
  Q 643.55 816.56 608.37 818.00
  L 578.74 818.00
  Q 563.27 817.11 556.75 816.47
  Q 507.37 811.64 461.28 793.80
  Q 461.31 793.22 461.53 792.82
  Q 461.74 792.44 462.15 792.58
  Q 462.28 792.63 462.41 792.69
  Q 463.18 793.09 463.31 792.23
  Q 463.53 790.83 462.57 789.61
  A 0.53 0.53 0.0 0 1 462.62 788.90
  Q 463.03 788.52 462.75 788.08
  Q 462.50 787.69 462.67 787.26
  Q 463.57 785.01 463.29 782.53
  Q 463.27 782.28 463.46 782.13
  Q 463.57 782.04 463.71 782.01
  A 0.53 0.53 0.0 0 0 463.81 781.02
  Q 463.22 780.73 463.65 780.20
  Q 463.98 779.79 463.96 779.27
  Q 463.84 776.74 464.80 774.90
  Q 465.75 773.06 465.77 770.85
  Q 465.77 770.36 466.06 769.97
  Q 466.89 768.86 467.49 767.44
  Q 467.79 766.74 467.55 766.04
  Q 467.45 765.76 467.62 765.51
  Q 469.19 763.20 468.84 760.27
  Q 468.77 759.69 469.11 759.22
  Q 469.56 758.59 469.40 757.81
  Q 469.30 757.28 469.51 756.79
  L 470.75 753.78
  Q 470.99 753.20 470.91 752.58
  Q 470.52 749.79 472.46 747.70
  A 0.08 0.08 0.0 0 0 472.41 747.56
  Q 472.23 747.53 472.22 747.35
  Q 472.20 746.98 472.47 746.68
  Q 474.28 744.65 474.96 741.79
  Q 475.11 741.17 475.73 741.00
  Q 476.61 740.77 476.45 739.82
  A 1.90 1.89 52.6 0 1 476.60 738.67
  Q 478.09 735.52 479.13 732.34
  Q 479.29 731.87 479.25 731.38
  Q 479.21 730.87 479.35 730.37
  L 481.06 724.08
  Q 481.16 723.73 481.37 723.44
  L 481.69 723.00
  A 0.76 0.75 54.5 0 0 481.80 722.32
  Q 480.75 718.91 483.87 717.40
  A 0.05 0.04 58.3 0 0 483.88 717.33
  L 483.62 717.04
  Q 483.28 716.65 483.62 716.27
  L 484.68 715.07
  A 0.93 0.93 0.0 0 0 484.89 714.24
  Q 484.71 713.40 485.38 712.92
  Q 485.76 712.65 485.44 712.32
  Q 485.17 712.04 485.01 711.68
  A 0.43 0.41 -43.6 0 1 485.03 711.28
  Q 485.11 711.15 485.25 711.10
  Q 485.71 710.95 485.71 710.47
  Q 485.71 710.12 485.44 709.94
  Q 485.28 709.84 484.91 709.85
  Q 483.21 709.90 483.53 708.48
  Q 507.60 721.19 532.50 731.94
  C 557.67 742.81 584.34 751.56 611.57 756.05
  Q 630.76 759.21 652.50 758.61
  Q 673.82 758.02 690.11 756.53
  C 728.13 753.05 766.56 743.70 800.43 727.24
  C 831.71 712.04 859.12 690.13 881.06 663.15
  Q 882.76 661.06 889.68 651.24
  Q 893.90 645.24 898.85 639.71
  Z"
/>
<path fill="#017db6" d="
  M 381.04 647.69
  Q 399.57 659.40 418.14 670.99
  C 426.77 676.39 436.24 681.73 445.29 687.12
  Q 464.16 698.37 483.53 708.48
  Q 483.21 709.90 484.91 709.85
  Q 485.28 709.84 485.44 709.94
  Q 485.71 710.12 485.71 710.47
  Q 485.71 710.95 485.25 711.10
  Q 485.11 711.15 485.03 711.28
  A 0.43 0.41 -43.6 0 0 485.01 711.68
  Q 485.17 712.04 485.44 712.32
  Q 485.76 712.65 485.38 712.92
  Q 484.71 713.40 484.89 714.24
  A 0.93 0.93 0.0 0 1 484.68 715.07
  L 483.62 716.27
  Q 483.28 716.65 483.62 717.04
  L 483.88 717.33
  A 0.05 0.04 58.3 0 1 483.87 717.40
  Q 480.75 718.91 481.80 722.32
  A 0.76 0.75 54.5 0 1 481.69 723.00
  L 481.37 723.44
  Q 481.16 723.73 481.06 724.08
  L 479.35 730.37
  Q 479.21 730.87 479.25 731.38
  Q 479.29 731.87 479.13 732.34
  Q 478.09 735.52 476.60 738.67
  A 1.90 1.89 52.6 0 0 476.45 739.82
  Q 476.61 740.77 475.73 741.00
  Q 475.11 741.17 474.96 741.79
  Q 474.28 744.65 472.47 746.68
  Q 472.20 746.98 472.22 747.35
  Q 472.23 747.53 472.41 747.56
  A 0.08 0.08 0.0 0 1 472.46 747.70
  Q 470.52 749.79 470.91 752.58
  Q 470.99 753.20 470.75 753.78
  L 469.51 756.79
  Q 469.30 757.28 469.40 757.81
  Q 469.56 758.59 469.11 759.22
  Q 468.77 759.69 468.84 760.27
  Q 469.19 763.20 467.62 765.51
  Q 467.45 765.76 467.55 766.04
  Q 467.79 766.74 467.49 767.44
  Q 466.89 768.86 466.06 769.97
  Q 465.77 770.36 465.77 770.85
  Q 465.75 773.06 464.80 774.90
  Q 463.84 776.74 463.96 779.27
  Q 463.98 779.79 463.65 780.20
  Q 463.22 780.73 463.81 781.02
  A 0.53 0.53 0.0 0 1 463.71 782.01
  Q 463.57 782.04 463.46 782.13
  Q 463.27 782.28 463.29 782.53
  Q 463.57 785.01 462.67 787.26
  Q 462.50 787.69 462.75 788.08
  Q 463.03 788.52 462.62 788.90
  A 0.53 0.53 0.0 0 0 462.57 789.61
  Q 463.53 790.83 463.31 792.23
  Q 463.18 793.09 462.41 792.69
  Q 462.28 792.63 462.15 792.58
  Q 461.74 792.44 461.53 792.82
  Q 461.31 793.22 461.28 793.80
  Q 439.35 785.08 423.07 775.42
  Q 389.63 755.57 355.63 727.84
  Q 356.76 727.29 357.48 727.58
  Q 357.68 727.66 357.80 727.49
  Q 357.92 727.32 357.94 727.12
  Q 357.97 726.77 357.62 726.86
  Q 357.49 726.89 357.37 726.81
  A 0.63 0.62 26.1 0 1 357.13 726.13
  Q 357.35 725.40 356.72 724.98
  Q 356.39 724.77 356.47 724.38
  Q 356.56 723.95 356.92 723.72
  Q 357.25 723.52 357.60 723.70
  Q 357.72 723.76 357.84 723.82
  Q 358.02 723.90 358.24 723.90
  Q 358.38 723.90 358.49 723.80
  Q 358.81 723.52 358.40 723.62
  Q 358.22 723.67 358.10 723.53
  Q 357.81 723.20 358.24 723.17
  Q 358.72 723.13 358.82 722.63
  Q 359.08 721.19 359.07 719.75
  Q 359.06 719.24 358.83 718.79
  Q 358.58 718.29 358.94 717.83
  Q 359.24 717.44 358.87 717.11
  Q 358.72 716.99 358.70 716.80
  Q 358.67 716.49 358.96 716.38
  Q 359.41 716.23 359.67 715.82
  C 360.16 715.01 359.74 713.84 360.28 712.82
  Q 360.54 712.34 360.04 712.11
  Q 359.91 712.05 359.77 711.97
  Q 359.58 711.85 359.67 711.64
  Q 359.82 711.30 360.16 711.23
  Q 360.66 711.13 360.81 710.64
  Q 361.49 708.47 361.18 706.40
  C 361.04 705.41 361.48 704.81 361.41 703.85
  Q 361.36 703.22 361.89 702.87
  L 362.30 702.59
  Q 362.58 702.41 362.60 702.07
  Q 362.68 700.78 363.25 699.54
  Q 363.43 699.15 363.28 698.76
  Q 363.06 698.15 363.63 697.81
  Q 364.07 697.55 364.05 697.04
  Q 363.96 695.38 364.92 693.93
  Q 365.53 693.00 365.63 691.99
  Q 365.68 691.50 365.93 691.08
  Q 366.81 689.59 366.97 687.90
  A 18.32 13.52 65.0 0 1 367.66 684.50
  Q 368.81 680.88 370.33 677.80
  C 370.87 676.73 370.72 675.44 371.22 674.32
  Q 373.43 669.39 374.69 664.66
  C 374.88 663.97 375.40 663.47 375.61 662.75
  Q 377.34 656.72 379.35 651.93
  Q 379.50 651.59 379.86 651.69
  Q 380.43 651.85 380.30 651.27
  Q 380.18 650.76 380.00 650.32
  Q 379.81 649.84 380.29 649.64
  Q 380.94 649.37 381.04 647.69
  Z"
/>
</svg>
